<?xml version="1.0" encoding="UTF-8" standalone="no"?>
<!-- Created with Inkscape (http://www.inkscape.org/) -->

<svg
   xmlns:dc="http://purl.org/dc/elements/1.1/"
   xmlns:cc="http://creativecommons.org/ns#"
   xmlns:rdf="http://www.w3.org/1999/02/22-rdf-syntax-ns#"
   xmlns:svg="http://www.w3.org/2000/svg"
   xmlns="http://www.w3.org/2000/svg"
   version="1.1"
   width="897.28113"
   height="208.71312"
   id="svg3452">
  <defs
     id="defs3454">
    <clipPath
       id="clipPath154">
      <path
         d="M 0,600 960,600 960,0 0,0 0,600 z"
         id="path156" />
    </clipPath>
    <clipPath
       id="clipPath24">
      <path
         d="M 0,600 960,600 960,0 0,0 0,600 z"
         id="path26" />
    </clipPath>
  </defs>
  <metadata
     id="metadata3457">
    <rdf:RDF>
      <cc:Work
         rdf:about="">
        <dc:format>image/svg+xml</dc:format>
        <dc:type
           rdf:resource="http://purl.org/dc/dcmitype/StillImage" />
        <dc:title></dc:title>
      </cc:Work>
    </rdf:RDF>
  </metadata>
  <g
     transform="translate(1657.212,89.13724)"
     id="layer1">
    <g
       transform="matrix(1.25,0,0,-1.25,-1789.0801,296.95076)"
       id="g20">
      <g
         clip-path="url(#clipPath24)"
         id="g22">
        <g
           transform="translate(433.4074,254.5076)"
           id="g28">
          <path
             d="m 0,0 c 0,-2.238 -0.559,-3.963 -1.679,-5.175 -1.119,-1.213 -3.232,-1.818 -6.341,-1.818 -3.046,0 -5.128,0.573 -6.248,1.725 -1.119,1.149 -1.677,2.904 -1.677,5.268 0,1.18 0.232,2.159 0.698,2.938 0.466,0.776 0.979,1.413 1.539,1.911 0.683,0.559 1.399,0.993 2.144,1.305 0.994,0.373 2.052,0.746 3.171,1.119 0.932,0.311 1.942,0.667 3.03,1.073 1.087,0.403 2.099,0.761 3.031,1.072 0.434,0.124 0.9,0.341 1.399,0.652 0.497,0.311 0.807,0.777 0.932,1.4 L -0.001,0 0,0 z M 4.009,32.963 C 1.46,35.108 -2.55,36.18 -8.02,36.18 c -2.797,0 -5.191,-0.296 -7.18,-0.886 -1.99,-0.591 -3.636,-1.399 -4.942,-2.424 -1.305,-1.026 -2.253,-2.223 -2.844,-3.59 -0.591,-1.368 -0.886,-2.83 -0.886,-4.383 l 0,-2.238 7.927,0 c 0,1.802 0.543,3.341 1.631,4.616 1.087,1.273 3.186,1.911 6.294,1.911 1.553,0 2.844,-0.172 3.87,-0.513 1.026,-0.342 1.849,-0.793 2.471,-1.352 0.621,-0.559 1.056,-1.166 1.306,-1.818 C -0.125,24.85 0,24.211 0,23.591 L 0,21.819 C 0,21.074 -0.14,20.421 -0.42,19.861 -0.7,19.302 -1.026,18.803 -1.399,18.369 -1.772,17.934 -2.161,17.607 -2.565,17.39 -2.97,17.171 -3.296,17.001 -3.544,16.877 c -0.25,-0.063 -0.871,-0.28 -1.865,-0.653 -0.995,-0.373 -2.161,-0.793 -3.497,-1.258 -1.337,-0.467 -2.72,-0.949 -4.15,-1.446 -1.431,-0.498 -2.704,-0.932 -3.823,-1.305 -2.238,-0.809 -3.963,-2.176 -5.175,-4.103 -1.211,-1.927 -1.817,-4.072 -1.817,-6.433 l 0,-4.383 c 0,-1.119 0.201,-2.347 0.606,-3.683 0.404,-1.338 1.196,-2.565 2.377,-3.683 1.181,-1.12 2.798,-2.052 4.849,-2.798 2.052,-0.745 4.723,-1.119 8.019,-1.119 3.294,0 5.968,0.374 8.019,1.119 2.052,0.747 3.667,1.679 4.849,2.798 1.18,1.118 1.973,2.345 2.377,3.683 0.404,1.336 0.606,2.564 0.606,3.683 l 0,2.705 0,20.42 0,4.476 c 10e-4,3.232 -1.274,5.921 -3.822,8.066"
             id="path30"
             style="fill:#ffffff;fill-opacity:1;fill-rule:nonzero;stroke:none" />
        </g>
        <path
           d="m 449.24,308.87 7.833,0 0,-67.604 -7.833,0 0,67.604 z"
           id="path32"
           style="fill:#ffffff;fill-opacity:1;fill-rule:nonzero;stroke:none" />
        <g
           transform="translate(488.999,254.3196)"
           id="g34">
          <path
             d="m 0,0 -0.093,0 0,-1.025 c 0,-0.56 -0.093,-1.166 -0.28,-1.818 -0.186,-0.653 -0.559,-1.259 -1.119,-1.818 -0.56,-0.56 -1.369,-1.042 -2.425,-1.446 -1.058,-0.405 -2.487,-0.606 -4.289,-0.606 -1.741,0 -3.124,0.201 -4.149,0.606 -1.026,0.404 -1.804,0.901 -2.332,1.492 -0.528,0.591 -0.871,1.228 -1.025,1.912 -0.156,0.683 -0.233,1.273 -0.233,1.772 l 0,0.932 -0.093,0 0,35.713 -7.832,0 0,-37.112 0,-1.026 c 0,-0.685 0.124,-1.664 0.373,-2.937 0.248,-1.275 0.9,-2.533 1.958,-3.776 1.056,-1.245 2.642,-2.317 4.756,-3.218 2.112,-0.9 5.035,-1.352 8.765,-1.352 3.73,0 6.651,0.452 8.765,1.352 2.113,0.901 3.698,1.973 4.756,3.218 1.056,1.243 1.709,2.486 1.958,3.73 0.248,1.242 0.373,2.238 0.373,2.983 l 0,1.678 0,36.46 -7.832,0 L 0.002,0 0,0 z"
             id="path36"
             style="fill:#ffffff;fill-opacity:1;fill-rule:nonzero;stroke:none" />
        </g>
        <g
           transform="translate(511.9798,289.2401)"
           id="g38">
          <path
             d="m 0,0 c -2.115,-0.902 -3.7,-1.975 -4.756,-3.217 -1.058,-1.244 -1.71,-2.503 -1.959,-3.777 -0.249,-1.275 -0.373,-2.254 -0.373,-2.937 l 0,-2.145 0,-35.9 7.926,0 0,35.621 0,0.84 c 0,0.559 0.078,1.166 0.233,1.817 0.154,0.654 0.514,1.275 1.073,1.866 0.559,0.59 1.363,1.076 2.377,1.539 2.253,1.028 6.948,0.746 7.693,0.746 l 1.772,6.808 C 13.114,1.384 10.289,1.531 9.232,1.531 5.504,1.53 2.112,0.901 0,0"
             id="path40"
             style="fill:#ffffff;fill-opacity:1;fill-rule:nonzero;stroke:none" />
        </g>
        <g
           transform="translate(553.6424,254.5076)"
           id="g42">
          <path
             d="m 0,0 c 0,-2.238 -0.559,-3.963 -1.679,-5.175 -1.119,-1.213 -3.232,-1.818 -6.341,-1.818 -3.046,0 -5.128,0.573 -6.247,1.725 -1.12,1.149 -1.678,2.904 -1.678,5.268 0,1.18 0.232,2.159 0.698,2.938 0.466,0.776 0.98,1.413 1.539,1.911 0.683,0.559 1.399,0.993 2.145,1.305 0.993,0.373 2.051,0.746 3.17,1.119 0.933,0.311 1.942,0.667 3.03,1.073 1.087,0.403 2.099,0.761 3.031,1.072 0.434,0.124 0.9,0.341 1.399,0.652 0.497,0.311 0.807,0.777 0.932,1.4 L -0.001,0 0,0 z m 4.01,32.963 c -2.549,2.145 -6.559,3.217 -12.029,3.217 -2.797,0 -5.191,-0.296 -7.18,-0.886 -1.99,-0.591 -3.636,-1.399 -4.942,-2.424 -1.305,-1.026 -2.253,-2.223 -2.844,-3.59 -0.591,-1.368 -0.886,-2.83 -0.886,-4.383 l 0,-2.238 7.926,0 c 0,1.802 0.544,3.341 1.632,4.616 1.087,1.273 3.186,1.911 6.294,1.911 1.553,0 2.845,-0.172 3.87,-0.513 1.026,-0.342 1.849,-0.793 2.471,-1.352 0.621,-0.559 1.056,-1.166 1.306,-1.818 0.248,-0.653 0.373,-1.292 0.373,-1.912 l 0,-1.772 c 0,-0.745 -0.14,-1.398 -0.42,-1.958 -0.28,-0.559 -0.606,-1.058 -0.979,-1.492 -0.373,-0.435 -0.762,-0.762 -1.166,-0.979 -0.405,-0.219 -0.731,-0.389 -0.979,-0.513 -0.25,-0.063 -0.871,-0.28 -1.865,-0.653 -0.995,-0.373 -2.161,-0.793 -3.497,-1.258 -1.337,-0.467 -2.72,-0.949 -4.15,-1.446 -1.43,-0.498 -2.704,-0.932 -3.823,-1.305 -2.238,-0.809 -3.963,-2.176 -5.175,-4.103 -1.212,-1.927 -1.818,-4.072 -1.818,-6.434 l 0,-4.383 c 0,-1.118 0.201,-2.347 0.606,-3.683 0.404,-1.337 1.196,-2.565 2.378,-3.683 1.18,-1.12 2.797,-2.052 4.848,-2.797 2.052,-0.746 4.724,-1.12 8.019,-1.12 3.294,0 5.968,0.374 8.019,1.12 2.052,0.746 3.667,1.678 4.849,2.797 1.18,1.118 1.973,2.346 2.377,3.683 0.404,1.336 0.607,2.565 0.607,3.683 l 0,2.705 0,20.421 0,4.476 c 0.001,3.232 -1.274,5.921 -3.822,8.066"
             id="path44"
             style="fill:#ffffff;fill-opacity:1;fill-rule:nonzero;stroke:none" />
        </g>
        <g
           transform="translate(212.7129,168.184)"
           id="g46">
          <path
             d="m 0,0 c -3.682,-2.894 -8.313,-4.421 -12.522,-4.421 -12.207,0 -20.206,9.683 -20.206,19.891 0,10.21 7.997,19.889 20.206,19.889 4.209,0 8.681,-1.419 12.154,-4.262 l -1.788,-3.263 c -2.84,2.632 -6.577,3.947 -10.366,3.947 -9.261,0 -16.208,-7.366 -16.208,-16.313 0,-8.944 6.946,-16.312 16.208,-16.312 3.369,0 7.365,1.421 10.525,3.894 L 0,0 z"
             id="path48"
             style="fill:#ffffff;fill-opacity:1;fill-rule:nonzero;stroke:none" />
        </g>
        <g
           transform="translate(226.5533,166.4475)"
           id="g50">
          <path
             d="m 0,0 c -1.526,-1.683 -3.21,-2.367 -4.999,-2.367 -4.262,0 -6.997,3.948 -6.997,7.314 0,4.052 3.209,7.42 6.944,7.42 1.788,0 3.58,-0.79 4.421,-1.736 l 0.104,0 0,1.894 c 0,2.103 -1.313,3.21 -3.998,3.21 -1.106,0 -2.051,-0.106 -2.894,-0.21 l 0.736,2.894 c 0.632,0.21 1.631,0.262 2.842,0.262 5.05,0 6.472,-2.683 6.472,-6.156 L 2.631,-1.42 0,-2.051 0,0 z m -4.683,0.79 c 2.842,0 4.156,2.578 4.156,4.211 0,1.63 -1.313,4.209 -4.156,4.209 -2.84,0 -4.157,-2.578 -4.157,-4.209 0,-1.632 1.315,-4.211 4.157,-4.211"
             id="path52"
             style="fill:#ffffff;fill-opacity:1;fill-rule:nonzero;stroke:none" />
        </g>
        <g
           transform="translate(237.7607,171.2905)"
           id="g54">
          <path
             d="m 0,0 c 1.104,-2.211 3.632,-4.053 6.368,-4.053 1.999,0 3.945,0.684 5.997,1.946 l 0.632,-3.21 C 10.681,-6.58 8.26,-7.211 6.368,-7.211 c -6.052,0 -10.525,5.104 -10.525,10.524 0,5.421 4.473,10.525 10.525,10.525 4.366,0 7.312,-2.526 8.892,-5.631 L 0,0 z M 10.525,9.155 C 9.313,10.469 7.893,10.891 6.261,10.891 2.947,10.891 -1,7.997 -1,3.945 -1,3.577 -1,3.209 -0.895,2.839 l 11.42,6.316 z"
             id="path56"
             style="fill:#ffffff;fill-opacity:1;fill-rule:nonzero;stroke:none" />
        </g>
        <g
           transform="translate(259.4415,203.2302)"
           id="g58">
          <path
             d="m 0,0 0,-38.202 -3.369,-0.632 0,38.202 L 0,0 z"
             id="path60"
             style="fill:#ffffff;fill-opacity:1;fill-rule:nonzero;stroke:none" />
        </g>
        <g
           transform="translate(265.1226,184.1821)"
           id="g62">
          <path
             d="m 0,0 3.368,0.63 0,-13.154 c 0,-2.21 1.476,-4.21 3.789,-4.21 3.265,0 5,2.631 5,5.314 l 0,11.42 3.369,0.63 0,-19.784 -3.158,-0.631 0,2.473 c -1.526,-1.79 -3.42,-2.79 -5.524,-2.79 -2.947,0 -6.843,2 -6.843,6.894 L 0.001,0 0,0 z"
             id="path64"
             style="fill:#ffffff;fill-opacity:1;fill-rule:nonzero;stroke:none" />
        </g>
        <g
           transform="translate(286.5381,184.1821)"
           id="g66">
          <path
             d="m 0,0 3.158,0.63 0,-1.683 c 1.577,1.473 3.314,1.999 4.841,1.999 1.789,0 3.577,-1.052 5,-3.156 1.316,1.945 3.21,3.156 5.789,3.156 3.105,0 6.471,-2.314 6.471,-6.63 l 0,-13.47 -3.368,-0.631 0,12.628 c 0,3.156 -1.475,4.736 -3.737,4.736 -1.895,0 -3.84,-1.736 -3.84,-4.841 l 0,-11.892 -3.37,-0.631 0,12.628 c 0,3.156 -1.473,4.736 -3.735,4.736 -1.895,0 -3.844,-1.736 -3.844,-4.841 l 0,-11.892 -3.369,-0.631 L -0.004,0 0,0 z"
             id="path68"
             style="fill:#ffffff;fill-opacity:1;fill-rule:nonzero;stroke:none" />
        </g>
        <g
           transform="translate(115.362,200.4139)"
           id="g70">
          <path
             d="M 0,0 0.926,-2.352 3.539,-1.931 1.831,-3.857 3.539,-5.787 0.926,-5.365 0,-7.718 l -0.922,2.353 -2.613,-0.422 1.709,1.93 -1.709,1.926 2.613,-0.421 L 0,0 z m 42.561,3.213 6.748,0 c 1.739,0 3.096,-1.353 3.096,-3.091 l 0,-52.966 c 0,-1.738 -1.357,-3.096 -3.096,-3.096 l -52.965,0 c -1.739,0 -3.092,1.358 -3.092,3.096 l 0,5.404 c 1.838,12.393 7.518,24.34 17.057,33.879 9.122,9.122 20.443,14.694 32.252,16.774 M -3.656,5.787 c -3.119,0 -5.666,-2.546 -5.666,-5.665 l 0,-52.966 c 0,-3.119 2.547,-5.67 5.666,-5.67 l 52.965,0 c 3.119,0 5.67,2.551 5.67,5.67 l 0,52.966 c 0,3.119 -2.551,5.665 -5.67,5.665 l -52.965,0 z"
             id="path72"
             style="fill:#ffffff;fill-opacity:1;fill-rule:nonzero;stroke:none" />
        </g>
        <g
           transform="translate(189.0234,145.8635)"
           id="g74">
          <path
             d="m 0,0 0,1.413 -5.409,0 0,4.044 4.912,0 0,1.412 -4.912,0 0,3.756 5.361,0 0,1.412 -7.062,0 0,-12.053 L 0,0 m 3.613,8.763 -1.509,0 0,-8.763 1.605,0 0,5.858 c 0,0.482 0.064,0.82 0.578,1.124 0.337,0.481 0.834,0.722 1.428,0.722 1.155,0 1.509,-0.706 1.509,-1.749 l 0,-5.955 1.605,0 0,4.574 C 8.829,5.361 8.797,6.083 8.732,6.805 8.637,8.346 7.625,9.004 6.261,9.004 5.137,9.004 4.415,8.507 3.693,7.64 L 3.66,7.64 3.613,8.763 M 16.955,6.548 c 0,0.354 -0.064,0.643 -0.176,0.883 -0.434,1.188 -1.541,1.637 -3.002,1.637 -1.268,0 -2.375,-0.594 -2.808,-1.685 C 10.856,7.11 10.792,6.789 10.792,6.436 l 0,0.112 c 0,-3.37 4.638,-1.989 4.831,-4.092 0.048,0.032 0.08,0.065 0.08,0.08 0,-0.337 -0.064,-0.642 -0.192,-0.883 C 15.254,1.188 14.708,0.963 13.97,0.867 12.67,0.755 12.22,1.38 12.284,2.488 l -1.54,0 c 0.032,-1.412 1.187,-2.745 3.13,-2.696 1.621,-0.017 2.776,0.641 3.258,1.749 0.161,0.321 0.24,0.69 0.24,1.075 0,0.274 -0.048,0.482 -0.144,0.659 -0.353,1.139 -1.493,1.235 -2.793,1.62 -0.401,0.113 -0.754,0.193 -1.027,0.322 -0.53,0.225 -0.931,0.561 -0.867,1.331 0,0.932 0.53,1.365 1.461,1.429 1.091,0.064 1.477,-0.369 1.412,-1.38 l 1.541,-0.049 m 4.026,2.215 -1.605,0 0,-8.763 1.605,0 0,8.763 z m 0,3.339 -1.605,0 0,-1.733 1.605,0 0,1.733 z m 4.011,-3.339 -1.509,0 0,-8.763 1.605,0 0,5.858 c 0,0.482 0.064,0.82 0.578,1.124 0.336,0.481 0.834,0.722 1.428,0.722 1.156,0 1.509,-0.706 1.509,-1.749 l 0,-5.955 1.605,0 0,4.574 c 0,0.787 -0.033,1.509 -0.097,2.231 -0.096,1.541 -1.107,2.199 -2.471,2.199 -1.124,0 -1.846,-0.497 -2.568,-1.364 l -0.033,0 -0.047,1.123 M 39.698,4.719 c 0,1.284 -0.256,2.295 -0.834,2.969 -0.658,0.85 -1.621,1.348 -2.889,1.348 -1.413,0 -2.424,-0.642 -2.954,-1.749 -0.529,-0.674 -0.77,-1.67 -0.77,-2.906 0.016,-1.765 0.337,-2.857 0.931,-3.45 0.706,-0.883 1.669,-1.22 2.793,-1.22 1.123,0 2.086,0.337 2.792,1.235 0.594,0.692 0.947,1.863 0.947,3.757 L 39.698,4.719 M 38.061,4.173 c 0,-0.979 -0.129,-1.717 -0.449,-2.183 -0.337,-0.61 -0.851,-0.979 -1.637,-0.979 -0.771,0 -1.284,0.369 -1.621,0.979 -0.337,0.546 -0.466,1.38 -0.466,2.456 0,1.204 0.161,2.006 0.514,2.44 0.353,0.594 0.867,0.883 1.573,0.883 0.689,0 1.219,-0.274 1.572,-0.867 0.353,-0.514 0.514,-1.397 0.514,-2.713 l 0,-0.016 M 50.894,2.761 c 0.032,-0.963 -0.401,-1.99 -1.701,-1.878 0,0.063 0.032,0.063 0.08,0.063 -1.3,0 -1.734,1.141 -1.814,2.297 0.08,0.336 0.209,0.689 0.305,0.914 l 4.783,0 c -0.032,0.851 -0.08,1.766 -0.337,2.552 -0.401,1.3 -1.171,2.312 -3.05,2.312 -1.492,0 -2.359,-1.012 -2.889,-2.248 -0.337,-0.787 -0.481,-1.717 -0.481,-2.52 0,-1.396 0.257,-2.343 0.69,-2.968 0.674,-1.124 1.621,-1.51 2.729,-1.51 1.46,0 2.471,0.771 2.953,1.943 0.161,0.32 0.256,0.673 0.272,1.075 l -1.54,-0.032 m -3.29,2.583 c -0.033,0.178 -0.081,0.402 -0.097,0.627 0.032,0.289 0.113,0.562 0.225,0.802 0.241,0.546 0.69,0.996 1.493,0.996 0.786,0 1.203,-0.45 1.428,-0.996 0.209,-0.449 0.209,-1.043 0.241,-1.476 l -3.29,0.047 m 13.656,6.71 -1.717,0 0,-12.054 1.717,0 0,12.054 z m 4.452,-3.291 -1.509,0 0,-8.763 1.605,0 0,5.858 c 0,0.482 0.064,0.819 0.578,1.124 0.337,0.481 0.835,0.722 1.428,0.722 1.156,0 1.509,-0.706 1.509,-1.749 l 0,-5.955 1.605,0 0,4.574 c 0,0.787 -0.032,1.509 -0.096,2.231 -0.097,1.541 -1.108,2.199 -2.472,2.199 -1.123,0 -1.846,-0.497 -2.568,-1.364 l -0.032,0 -0.048,1.123 M 80.419,4.719 c 0,1.284 -0.257,2.295 -0.836,2.969 -0.657,0.85 -1.62,1.348 -2.888,1.348 -1.412,0 -2.423,-0.642 -2.953,-1.749 -0.53,-0.674 -0.77,-1.67 -0.77,-2.906 0.016,-1.765 0.337,-2.857 0.93,-3.45 0.707,-0.883 1.669,-1.22 2.793,-1.22 1.124,0 2.086,0.337 2.793,1.235 0.593,0.692 0.947,1.863 0.947,3.757 L 80.419,4.719 M 78.781,4.173 c 0,-0.979 -0.128,-1.717 -0.449,-2.183 -0.337,-0.61 -0.85,-0.979 -1.637,-0.979 -0.77,0 -1.284,0.369 -1.621,0.979 -0.337,0.546 -0.465,1.38 -0.465,2.456 0,1.204 0.16,2.006 0.513,2.44 0.354,0.594 0.867,0.883 1.573,0.883 0.69,0 1.22,-0.274 1.573,-0.867 0.353,-0.514 0.513,-1.397 0.513,-2.713 l 0,-0.016 M 84.468,0 86.186,0 c 0.994,2.921 1.973,5.858 2.968,8.779 l -1.62,0 C 87.084,7.094 86.683,5.89 86.233,4.206 85.961,3.243 85.672,2.263 85.383,1.3 l -0.016,0 c -0.465,1.541 -0.947,3.098 -1.38,4.623 -0.273,0.946 -0.546,1.909 -0.819,2.856 l -1.653,0 C 82.494,5.858 83.473,2.921 84.452,0 l 0.016,0 m 12.613,0.722 c -0.803,-0.064 -0.77,0.321 -0.77,0.738 l 0,3.05 c 0,0.834 -0.016,1.605 -0.08,2.392 -0.097,0.593 -0.353,2.119 -2.761,2.119 -1.781,0 -2.793,-0.578 -3.066,-1.863 C 90.34,6.949 90.308,6.741 90.325,6.485 l 1.251,0 c 0.241,0.946 0.401,1.3 1.621,1.3 1.027,0 1.557,-0.305 1.557,-1.349 0,-1.252 -0.481,-0.738 -3.403,-2.006 C 90.597,4.141 90.164,3.627 90.019,3.05 89.859,2.713 89.843,2.391 89.843,2.328 c 0,-1.718 0.818,-2.617 2.664,-2.617 0.963,0 1.91,0.674 2.327,1.525 l 0.032,0 c 0.081,-0.626 0.225,-0.963 0.466,-1.156 0.336,-0.176 0.77,-0.192 1.412,-0.16 0.145,0.032 0.289,0.049 0.434,0.064 0,0.24 -0.097,0.449 -0.097,0.707 l 0,0.031 M 94.626,2.745 C 94.577,1.252 93.47,0.867 92.908,0.867 92.09,0.883 91.689,1.172 91.576,1.734 c -0.032,0.16 -0.048,0.353 -0.048,0.561 0.016,0.546 0.257,1.092 0.883,1.332 0.754,0.321 1.572,0.579 2.279,0.979 0,-0.609 0,-1.219 -0.032,-1.813 L 94.626,2.745 m 6.012,-4.141 c 0.097,-0.113 0.144,-0.24 0.225,-0.354 0.128,0.033 0.288,0.081 0.433,0.097 0.209,0.064 0.401,0.08 0.594,0.017 0.498,-0.194 0.562,-0.691 0.433,-0.868 -0.144,-0.224 -0.337,-0.401 -0.898,-0.384 -0.209,0.015 -0.402,0.047 -0.578,0.111 -0.161,0.065 -0.305,0.129 -0.466,0.177 -0.096,-0.16 -0.128,-0.433 -0.336,-0.641 0.481,-0.209 0.962,-0.339 1.492,-0.402 0.996,-0.032 2.07,0.321 2.119,1.444 0.047,0.755 -0.562,1.124 -1.092,1.22 -0.289,0.048 -0.594,0.048 -0.802,-0.032 l -0.033,0.032 c 0.209,0.257 0.434,0.498 0.643,0.754 1.252,0.113 2.021,0.835 2.471,1.814 0.225,0.449 0.337,0.915 0.369,1.445 l -1.541,0 c -0.031,-0.466 -0.095,-0.947 -0.321,-1.285 -0.24,-0.417 -0.657,-0.738 -1.396,-0.738 -0.69,0 -1.14,0.369 -1.444,0.818 -0.418,0.611 -0.482,1.558 -0.482,2.232 0,0.561 -0.016,1.541 0.241,2.327 0.257,0.786 0.786,1.381 1.75,1.381 0.593,0 1.01,-0.178 1.283,-0.45 0.257,-0.337 0.354,-0.819 0.369,-1.3 l 1.525,0 c -0.016,0.545 -0.128,1.059 -0.369,1.476 -0.53,0.979 -1.477,1.59 -2.761,1.59 -1.829,0 -2.76,-1.061 -3.242,-2.424 -0.273,-0.755 -0.369,-1.605 -0.369,-2.44 0,-0.594 0.048,-1.156 0.193,-1.669 0.369,-1.428 1.268,-2.552 2.969,-2.728 -0.305,-0.385 -0.594,-0.787 -0.898,-1.172 l -0.081,-0.048 m 13.027,2.118 c -0.803,-0.064 -0.771,0.321 -0.771,0.738 l 0,3.05 c 0,0.834 -0.016,1.605 -0.08,2.392 -0.096,0.593 -0.353,2.119 -2.761,2.119 -1.781,0 -2.793,-0.578 -3.065,-1.863 -0.064,-0.209 -0.097,-0.417 -0.08,-0.673 l 1.252,0 c 0.24,0.946 0.401,1.3 1.62,1.3 1.028,0 1.557,-0.305 1.557,-1.349 0,-1.252 -0.481,-0.738 -3.402,-2.006 -0.755,-0.289 -1.188,-0.803 -1.332,-1.38 -0.16,-0.337 -0.177,-0.659 -0.177,-0.722 0,-1.718 0.819,-2.617 2.664,-2.617 0.963,0 1.911,0.674 2.327,1.525 l 0.033,0 c 0.08,-0.626 0.224,-0.963 0.466,-1.156 0.337,-0.176 0.77,-0.192 1.412,-0.16 0.144,0.032 0.288,0.049 0.433,0.064 0,0.24 -0.096,0.449 -0.096,0.707 l 0,0.031 m -2.456,2.023 c -0.048,-1.493 -1.156,-1.878 -1.717,-1.878 -0.818,0.016 -1.22,0.305 -1.332,0.867 -0.033,0.16 -0.048,0.353 -0.048,0.561 0.015,0.546 0.256,1.092 0.883,1.332 0.754,0.321 1.572,0.579 2.278,0.979 0,-0.609 0,-1.219 -0.032,-1.813 l -0.032,-0.048 m 0.915,9.148 c -0.016,-0.305 -0.353,-0.69 -0.69,-0.706 -0.819,-0.048 -1.59,0.626 -2.504,0.626 -1.043,0 -1.638,-0.915 -1.717,-1.862 l 0.899,0 c 0.048,0.353 0.352,0.722 0.722,0.722 0.802,0 1.589,-0.658 2.471,-0.658 1.092,0 1.621,0.867 1.717,1.83 -0.321,-0.017 -0.561,0 -0.866,0 l -0.032,0.048 m 10.394,-7.174 c 0,1.284 -0.257,2.295 -0.835,2.969 -0.658,0.85 -1.62,1.348 -2.888,1.348 -1.413,0 -2.424,-0.642 -2.954,-1.749 -0.529,-0.674 -0.77,-1.67 -0.77,-2.906 0.016,-1.765 0.337,-2.857 0.931,-3.45 0.706,-0.883 1.669,-1.22 2.793,-1.22 1.123,0 2.087,0.337 2.792,1.235 0.594,0.692 0.947,1.863 0.947,3.757 l -0.016,0.016 m -1.637,-0.546 c 0,-0.979 -0.128,-1.717 -0.449,-2.183 -0.338,-0.61 -0.851,-0.979 -1.637,-0.979 -0.77,0 -1.284,0.369 -1.622,0.979 -0.337,0.546 -0.465,1.38 -0.465,2.456 0,1.204 0.16,2.006 0.514,2.44 0.353,0.594 0.866,0.883 1.573,0.883 0.69,0 1.219,-0.274 1.573,-0.867 0.353,-0.514 0.513,-1.397 0.513,-2.713 l 0,-0.016"
             id="path76"
             style="fill:#ffffff;fill-opacity:1;fill-rule:nonzero;stroke:none" />
        </g>
        <g
           transform="translate(420.6132,186.4315)"
           id="g78">
          <path
             d="m 0,0 c 0,4.896 -1.18,7.914 -4.678,7.914 -3.455,0 -4.853,-2.973 -4.853,-7.171 0,-4.066 0.568,-8.438 4.765,-8.438 C -1.356,-7.695 0,-4.546 0,0 m -4.417,11.761 c 3.236,0 9.751,-1.006 9.751,-11.061 0,-8.395 -4.679,-12.242 -10.449,-12.242 -5.858,0 -9.707,3.759 -9.707,11.673 0,9.095 5.903,11.63 10.405,11.63"
             id="path80"
             style="fill:#ffffff;fill-opacity:1;fill-rule:nonzero;stroke:none" />
        </g>
        <g
           transform="translate(416.5964,169.1382)"
           id="g82">
          <path
             d="m 0,0 0,-4.635 5.814,0 -0.437,-3.673 -5.378,0 0,-11.498 c 0,-2.668 1.049,-3.455 2.842,-3.455 1.18,0 2.274,0.481 2.972,0.918 l 1.312,-3.367 c -1.312,-0.917 -3.498,-1.528 -5.553,-1.528 -6.82,0 -6.776,4.198 -6.776,7.257 l 0,11.673 -3.105,0 0.438,3.192 c 3.06,0.263 4.11,2.624 5.027,5.116 L 0,0 z"
             id="path84"
             style="fill:#ffffff;fill-opacity:1;fill-rule:nonzero;stroke:none" />
        </g>
        <g
           transform="translate(428.2274,159.5178)"
           id="g86">
          <path
             d="m 0,0 c 0,0.963 -0.262,1.269 -1.093,1.313 l -1.835,0.131 0,3.541 7.388,0 0,-3.278 c 1.006,2.186 3.323,3.935 6.208,3.935 1.444,0 2.755,-0.263 4.198,-0.962 l 0,-6.515 -4.066,-0.306 0,2.012 c 0,0.525 -0.088,0.918 -0.437,1.093 -0.394,0.175 -0.7,0.219 -1.181,0.219 -2.361,0 -3.978,-1.881 -3.978,-4.416 l 0,-10.143 3.803,-0.174 0,-3.454 -11.717,0 0,3.323 1.443,0.131 c 0.831,0.087 1.268,0.349 1.268,1.443 L 0,0 z"
             id="path88"
             style="fill:#ffffff;fill-opacity:1;fill-rule:nonzero;stroke:none" />
        </g>
        <g
           transform="translate(457.934,160.7862)"
           id="g90">
          <path
             d="m 0,0 c -0.656,0.306 -2.012,0.569 -3.367,0.569 -4.154,0 -5.552,-3.891 -5.552,-8.614 0,-3.629 0.874,-7.083 4.547,-7.083 2.711,0 4.372,1.924 4.372,3.804 L 0,0 z m 5.071,-13.422 c 0,-0.963 0.263,-1.225 1.094,-1.27 l 1.399,-0.086 0,-3.498 -6.951,0 0,2.535 -0.132,0.045 c -1.356,-1.967 -3.586,-3.148 -5.99,-3.148 -6.165,0 -8.744,4.372 -8.744,10.623 0,7.695 3.672,12.592 11.543,12.592 1.443,0 4.634,-0.349 7.782,-1.529 L 5.071,-13.422 z"
             id="path92"
             style="fill:#ffffff;fill-opacity:1;fill-rule:nonzero;stroke:none" />
        </g>
        <g
           transform="translate(473.0731,146.6642)"
           id="g94">
          <path
             d="m 0,0 c 0.83,-0.437 2.404,-0.874 3.847,-0.874 3.06,0 4.985,2.097 4.985,8.087 0,3.411 -0.831,7.389 -4.897,7.389 C 1.924,14.602 0,13.29 0,11.323 L 0,0 z m -5.072,22.255 c 0,0.743 -0.35,1.006 -1.094,1.049 l -1.53,0.089 0,3.628 7.695,0 0,-10.36 c 1.224,1.137 3.235,1.834 5.29,1.834 5.422,0 8.92,-3.759 8.92,-10.579 0,-8.526 -3.541,-12.636 -10.581,-12.636 -3.059,0 -6.864,0.831 -8.7,1.879 l 0,25.096 z"
             id="path96"
             style="fill:#ffffff;fill-opacity:1;fill-rule:nonzero;stroke:none" />
        </g>
        <g
           transform="translate(502.3953,160.7862)"
           id="g98">
          <path
             d="m 0,0 c -0.656,0.306 -2.01,0.569 -3.366,0.569 -4.155,0 -5.554,-3.891 -5.554,-8.614 0,-3.629 0.875,-7.083 4.546,-7.083 2.712,0 4.373,1.924 4.373,3.804 L -0.001,0 0,0 z m 5.073,-13.422 c 0,-0.963 0.263,-1.225 1.093,-1.27 l 1.4,-0.086 0,-3.498 -6.953,0 0,2.535 -0.131,0.043 c -1.356,-1.966 -3.586,-3.148 -5.99,-3.148 -6.165,0 -8.744,4.372 -8.744,10.624 0,7.695 3.672,12.593 11.543,12.593 1.443,0 4.633,-0.349 7.782,-1.529 l 0,-16.264 z"
             id="path100"
             style="fill:#ffffff;fill-opacity:1;fill-rule:nonzero;stroke:none" />
        </g>
        <g
           transform="translate(519.5966,146.14)"
           id="g102">
          <path
             d="m 0,0 2.493,-0.131 0,-3.498 -10.405,0 0,3.323 1.442,0.13 c 0.788,0.088 1.271,0.35 1.271,1.4 l 0,21.555 c 0,0.787 -0.439,1.006 -1.095,1.049 l -1.529,0.089 0,3.628 7.823,0 L 0,0 z"
             id="path104"
             style="fill:#ffffff;fill-opacity:1;fill-rule:nonzero;stroke:none" />
        </g>
        <g
           transform="translate(526.3941,168.6999)"
           id="g106">
          <path
             d="m 0,0 c 0,0.962 -0.263,1.225 -1.093,1.268 l -1.529,0.089 0,3.628 7.78,0 0,-11.76 c 1.313,1.878 3.499,3.235 6.384,3.235 4.372,0 6.953,-2.448 6.953,-7.607 l 0,-11.412 2.492,-0.131 0,-3.498 -10.406,0 0,3.323 1.442,0.13 c 0.832,0.088 1.27,0.35 1.27,1.443 l 0,9.007 c 0,2.667 -0.614,4.722 -3.412,4.722 -3.061,0 -4.678,-2.142 -4.678,-4.415 l 0,-10.581 2.494,-0.131 0,-3.498 -10.407,0 0,3.321 1.443,0.13 c 0.832,0.088 1.268,0.35 1.268,1.443 L 0.001,0 0,0 z"
             id="path108"
             style="fill:#ffffff;fill-opacity:1;fill-rule:nonzero;stroke:none" />
        </g>
        <g
           transform="translate(561.3972,160.7862)"
           id="g110">
          <path
             d="m 0,0 c -0.656,0.306 -2.013,0.569 -3.368,0.569 -4.155,0 -5.551,-3.891 -5.551,-8.614 0,-3.629 0.874,-7.083 4.544,-7.083 2.711,0 4.372,1.924 4.372,3.804 L -0.003,0 0,0 z m 5.071,-13.422 c 0,-0.963 0.263,-1.225 1.093,-1.27 l 1.399,-0.086 0,-3.498 -6.951,0 0,2.535 -0.131,0.043 c -1.356,-1.966 -3.586,-3.148 -5.991,-3.148 -6.163,0 -8.743,4.372 -8.743,10.624 0,7.695 3.672,12.593 11.542,12.593 1.443,0 4.635,-0.349 7.782,-1.529 l 0,-16.264 z"
             id="path112"
             style="fill:#ffffff;fill-opacity:1;fill-rule:nonzero;stroke:none" />
        </g>
        <g
           transform="translate(573.0095,159.5178)"
           id="g114">
          <path
             d="m 0,0 c 0,0.963 -0.263,1.269 -1.095,1.313 l -1.834,0.131 0,3.541 7.388,0 0,-3.278 c 1.006,2.186 3.321,3.935 6.208,3.935 1.443,0 2.754,-0.263 4.198,-0.962 l 0,-6.515 -4.066,-0.306 0,2.012 c 0,0.525 -0.089,0.918 -0.439,1.093 -0.393,0.175 -0.698,0.219 -1.181,0.219 -2.36,0 -3.98,-1.881 -3.98,-4.416 l 0,-10.143 3.806,-0.174 0,-3.454 -11.719,0 0,3.323 1.442,0.131 c 0.831,0.087 1.269,0.349 1.269,1.443 L -0.003,0 0,0 z"
             id="path116"
             style="fill:#ffffff;fill-opacity:1;fill-rule:nonzero;stroke:none" />
        </g>
        <g
           transform="translate(426.6396,197.5373)"
           id="g118">
          <path
             d="m 0,0 7.389,0 0,-2.842 c 1.53,2.187 4.197,3.498 7.083,3.498 4.372,0 6.952,-2.448 6.952,-7.607 l 0,-11.412 2.492,-0.131 0,-3.498 -10.406,0 0,3.323 1.443,0.13 c 0.83,0.088 1.268,0.35 1.268,1.443 l 0,9.006 c 0,2.887 -0.611,4.722 -3.584,4.722 -2.886,0 -4.504,-2.141 -4.504,-4.416 l 0,-10.58 2.492,-0.131 0,-3.498 -10.406,0 0,3.323 1.443,0.13 c 0.83,0.088 1.269,0.349 1.269,1.443 l 0,12.113 c 0,0.962 -0.307,1.311 -1.094,1.355 L 0.001,-3.498 0,0 z"
             id="path120"
             style="fill:#ffffff;fill-opacity:1;fill-rule:nonzero;stroke:none" />
        </g>
        <g
           transform="translate(465.0104,193.6889)"
           id="g122">
          <path
             d="m 0,0 c -0.787,0.349 -1.967,0.7 -3.323,0.7 -4.154,0 -5.553,-3.935 -5.553,-8.22 0,-3.979 0.962,-7.345 4.722,-7.345 2.448,0 4.154,1.618 4.154,3.541 L 0,0 z m 0,3.98 0,4.415 c 0,0.744 -0.394,1.006 -1.137,1.05 l -1.879,0.131 0,3.453 8.132,0 0,-26.582 c 0.043,-0.744 0.349,-1.006 1.093,-1.006 l 1.53,-0.087 0,-3.498 -7.083,0 0,2.58 -0.131,0.043 c -1.355,-2.186 -3.541,-3.192 -5.945,-3.192 -6.821,0 -8.832,5.247 -8.832,10.712 0,7.477 3.847,12.505 10.668,12.505 1.529,0 2.578,-0.218 3.584,-0.524"
             id="path124"
             style="fill:#ffffff;fill-opacity:1;fill-rule:nonzero;stroke:none" />
        </g>
        <g
           transform="translate(483.5691,194.4765)"
           id="g126">
          <path
             d="m 0,0 c -3.498,0 -5.071,-3.367 -5.202,-6.602 3.235,0.043 7.825,0.788 7.825,4.154 C 2.624,-0.831 1.574,0 0,0 m 7.433,-2.361 c 0,-6.733 -7.301,-7.87 -12.461,-7.914 0.175,-2.842 1.661,-5.159 5.378,-5.159 2.58,0 4.46,1.181 5.51,1.924 l 1.661,-3.541 c -0.7,-0.612 -3.586,-2.449 -7.695,-2.449 -7.433,0 -10.318,4.547 -10.318,11.061 0,6.471 3.629,12.155 10.8,12.155 4.284,0 7.125,-2.186 7.125,-6.077"
             id="path128"
             style="fill:#ffffff;fill-opacity:1;fill-rule:nonzero;stroke:none" />
        </g>
        <g
           transform="translate(754.226,250.5068)"
           id="g130">
          <path
             d="m 0,0 c 5.991,0 11.772,-0.392 17.221,-1.103 l 2.82,5.164 C 13.712,4.988 6.984,5.493 0,5.493 c -6.984,0 -13.711,-0.505 -20.038,-1.432 l 2.82,-5.164 C -11.766,-0.392 -5.991,0 0,0"
             id="path132"
             style="fill:#ffffff;fill-opacity:1;fill-rule:nonzero;stroke:none" />
        </g>
        <g
           transform="translate(783.7014,202.3321)"
           id="g134">
          <path
             d="m 0,0 c 1.157,7.006 1.796,14.545 1.796,22.403 0,2.231 -0.06,4.43 -0.157,6.605 L -3.766,18.446 C -3.961,11.49 -4.672,4.85 -5.815,-1.257 -8.607,-1.78 -11.512,-2.213 -14.507,-2.544 l -2.974,-5.816 c 3.579,0.301 7.057,0.73 10.409,1.288 -2.391,-9.704 -5.919,-17.706 -10.171,-23.024 -3.882,-0.896 -7.918,-1.391 -12.072,-1.4 l -0.16,-0.314 -0.157,0.314 c -4.151,0.009 -8.191,0.504 -12.073,1.4 -4.252,5.318 -7.78,13.32 -10.167,23.024 3.352,-0.555 6.83,-0.987 10.406,-1.288 l -2.977,5.816 c -2.992,0.331 -5.897,0.764 -8.689,1.287 -1.14,6.104 -1.852,12.744 -2.049,19.703 l -5.402,10.559 c -0.1,-2.175 -0.16,-4.374 -0.16,-6.602 0,-7.858 0.636,-15.397 1.796,-22.403 -9.808,2.419 -17.876,5.997 -23.187,10.308 -0.918,3.945 -1.416,8.047 -1.416,12.267 0,4.067 0.46,8.025 1.313,11.832 3.706,3.036 8.782,5.712 14.861,7.88 l -2.572,5.026 c -3.441,-1.219 -6.637,-2.585 -9.51,-4.083 1.601,3.861 3.644,7.492 6.05,10.845 l -1.848,3.606 4.446,0 0.235,0 c 5.483,6.417 12.43,11.544 20.348,14.84 -2.263,-4.305 -4.221,-9.309 -5.819,-14.84 l 1.952,0 1.614,0 0.771,-1.416 0.673,-1.234 c 2.419,8.544 5.756,15.56 9.695,20.3 3.819,0.856 7.789,1.323 11.866,1.323 4.08,0 8.049,-0.467 11.869,-1.323 3.938,-4.74 7.276,-11.756 9.695,-20.3 l 0.67,1.234 0.774,1.416 1.613,0 1.956,0 c -1.601,5.531 -3.562,10.535 -5.819,14.84 7.912,-3.296 14.862,-8.423 20.345,-14.84 l 0.232,0 4.446,0 -1.842,-3.606 c 2.406,-3.349 4.449,-6.981 6.047,-10.845 -2.876,1.501 -6.066,2.864 -9.506,4.083 L 8.432,42.287 c 6.078,-2.168 11.148,-4.844 14.855,-7.88 0.852,-3.807 1.316,-7.765 1.316,-11.832 0,-4.22 -0.498,-8.322 -1.413,-12.267 C 17.876,5.997 9.807,2.416 0,0 m -8.479,-27.272 c 3.065,5.953 5.571,13.203 7.342,21.334 8.193,1.786 15.485,4.318 21.469,7.413 C 14.846,-11.456 4.471,-21.814 -8.479,-27.272 M -79.28,1.475 c 5.982,-3.095 13.276,-5.627 21.47,-7.413 1.77,-8.131 4.28,-15.381 7.341,-21.334 -12.947,5.458 -23.321,15.813 -28.811,28.747 m 49.805,90.194 c -38.158,0 -69.093,-30.933 -69.093,-69.094 0,-38.157 30.935,-69.093 69.093,-69.093 38.161,0 69.093,30.936 69.093,69.093 0,38.161 -30.932,69.094 -69.093,69.094"
             id="path136"
             style="fill:#ffffff;fill-opacity:1;fill-rule:nonzero;stroke:none" />
        </g>
        <g
           transform="translate(778.8476,256.9053)"
           id="g138">
          <path
             d="M 0,0 -24.622,-45.151 -49.24,0 -65.956,0 -33.742,-62.967 -14.435,-60.884 16.714,0 0,0 z"
             id="path140"
             style="fill:#ffffff;fill-opacity:1;fill-rule:nonzero;stroke:none" />
        </g>
        <g
           transform="translate(754.226,176.1061)"
           id="g142">
          <path
             d="M 0,0 8.263,16.146 -7.376,14.419 0,0 z"
             id="path144"
             style="fill:#ffffff;fill-opacity:1;fill-rule:nonzero;stroke:none" />
        </g>
      </g>
    </g>
    <g
       transform="matrix(1.25,0,0,-1.25,-1789.0801,296.95076)"
       id="g150">
      <g
         clip-path="url(#clipPath154)"
         id="g152">
        <g
           transform="translate(176.7188,278.3342)"
           id="g158">
          <path
             d="m 0,0 c -0.63,-0.169 -1.367,-0.253 -2.211,-0.253 -0.941,0 -1.811,0.169 -2.608,0.506 -0.799,0.34 -1.493,0.847 -2.086,1.522 -0.591,0.678 -1.055,1.523 -1.393,2.539 -0.339,1.012 -0.508,2.196 -0.508,3.549 0,1.503 0.179,2.772 0.536,3.805 0.356,1.032 0.831,1.869 1.422,2.508 0.593,0.639 1.263,1.1 2.015,1.382 0.751,0.281 1.512,0.422 2.284,0.422 1.671,0 2.959,-0.214 3.859,-0.648 l 1.213,1.86 c -0.94,0.338 -1.765,0.569 -2.48,0.69 -0.715,0.123 -1.634,0.183 -2.762,0.183 -1.053,0 -2.086,-0.186 -3.099,-0.563 -1.016,-0.377 -1.931,-0.972 -2.748,-1.789 -0.819,-0.817 -1.476,-1.872 -1.974,-3.156 -0.497,-1.288 -0.746,-2.853 -0.746,-4.694 0,-1.764 0.225,-3.291 0.677,-4.578 0.45,-1.286 1.061,-2.344 1.832,-3.169 0.77,-0.829 1.673,-1.444 2.704,-1.847 1.034,-0.402 2.143,-0.605 3.327,-0.605 0.976,0 1.897,0.084 2.763,0.253 0.862,0.169 1.793,0.638 2.79,1.41 L 1.594,0.651 C 1.16,0.384 0.63,0.169 0,0"
             id="path160"
             style="fill:#ffffff;fill-opacity:1;fill-rule:nonzero;stroke:none" />
        </g>
        <g
           transform="translate(264.4462,278.8579)"
           id="g162">
          <path
             d="m 0,0 c -0.63,-0.169 -1.366,-0.255 -2.212,-0.255 -0.941,0 -1.81,0.169 -2.606,0.507 -0.8,0.339 -1.494,0.846 -2.085,1.523 -0.593,0.676 -1.057,1.522 -1.395,2.537 -0.338,1.014 -0.507,2.198 -0.507,3.551 0,1.503 0.177,2.771 0.535,3.805 0.356,1.032 0.831,1.869 1.422,2.509 0.592,0.636 1.263,1.099 2.015,1.38 0.751,0.283 1.511,0.423 2.283,0.423 1.672,0 2.958,-0.215 3.861,-0.648 l 1.212,1.861 c -0.94,0.338 -1.767,0.567 -2.48,0.689 -0.715,0.124 -1.634,0.183 -2.762,0.183 -1.053,0 -2.085,-0.187 -3.1,-0.563 -1.015,-0.378 -1.93,-0.972 -2.749,-1.79 -0.816,-0.817 -1.475,-1.869 -1.972,-3.156 -0.497,-1.286 -0.746,-2.852 -0.746,-4.691 0,-1.766 0.225,-3.293 0.677,-4.58 0.451,-1.287 1.061,-2.344 1.831,-3.17 0.771,-0.828 1.672,-1.443 2.705,-1.846 1.034,-0.402 2.143,-0.605 3.327,-0.605 0.976,0 1.899,0.084 2.762,0.255 0.863,0.169 1.794,0.638 2.791,1.408 L 1.594,0.651 C 1.16,0.384 0.63,0.169 0,0"
             id="path164"
             style="fill:#ffffff;fill-opacity:1;fill-rule:nonzero;stroke:none" />
        </g>
        <g
           transform="translate(188.5424,280.3076)"
           id="g166">
          <path
             d="m 0,0 c -0.094,-0.244 -0.239,-0.499 -0.437,-0.762 -0.196,-0.263 -0.446,-0.502 -0.746,-0.717 -0.301,-0.216 -0.724,-0.395 -1.269,-0.536 -0.545,-0.141 -1.08,-0.211 -1.605,-0.211 -0.734,0 -1.336,0.211 -1.804,0.634 -0.47,0.424 -0.705,0.963 -0.705,1.62 0,0.469 0.183,0.949 0.549,1.438 0.367,0.488 0.982,0.765 1.846,0.83 0.864,0.067 1.719,0.099 2.565,0.099 0.262,0 0.53,-0.005 0.803,-0.014 C -0.532,2.371 -0.263,2.357 0,2.34 L 0,0 z m 2.495,-2.353 c -0.253,0.648 -0.381,1.32 -0.381,2.015 0,0.958 0.029,1.972 0.084,3.044 0.058,1.07 0.085,2.17 0.085,3.297 0,0.507 -0.052,1.014 -0.155,1.522 C 2.025,8.032 1.818,8.497 1.508,8.919 1.199,9.341 0.747,9.685 0.156,9.947 -0.437,10.21 -1.22,10.342 -2.197,10.342 -3.23,10.342 -4.222,10.239 -5.17,10.033 -6.119,9.825 -6.951,9.506 -7.664,9.074 l 0.705,-1.692 c 0.262,0.151 0.567,0.287 0.915,0.408 0.347,0.122 0.715,0.226 1.099,0.311 0.385,0.084 0.76,0.151 1.128,0.196 0.365,0.048 0.709,0.071 1.028,0.071 1.09,0 1.841,-0.207 2.254,-0.619 C -0.122,7.334 0.086,6.612 0.086,5.579 0.086,5.127 0.058,4.62 0.001,4.057 -0.262,4.094 -0.52,4.112 -0.773,4.112 l -0.776,0 c -1.296,0 -2.526,-0.07 -3.69,-0.211 C -6.405,3.76 -7.308,3.249 -7.945,2.367 -8.584,1.481 -8.904,0.627 -8.904,-0.199 c 0,-0.619 0.107,-1.174 0.324,-1.662 0.217,-0.489 0.513,-0.908 0.888,-1.255 0.375,-0.349 0.823,-0.615 1.337,-0.803 0.519,-0.187 1.077,-0.282 1.678,-0.282 0.601,0 1.202,0.067 1.803,0.198 0.602,0.129 1.08,0.296 1.437,0.492 0.356,0.198 0.662,0.424 0.916,0.677 0.253,0.254 0.465,0.511 0.634,0.775 l 0.14,0 c 0.394,-1.314 0.883,-1.972 1.465,-1.972 l 2.001,0 c -0.562,0.47 -0.971,1.03 -1.224,1.678"
             id="path168"
             style="fill:#ffffff;fill-opacity:1;fill-rule:nonzero;stroke:none" />
        </g>
        <g
           transform="translate(200.5349,283.577)"
           id="g170">
          <path
             d="m 0,0 c -0.499,0.338 -1.043,0.609 -1.635,0.817 -0.592,0.206 -1.137,0.418 -1.635,0.634 -0.497,0.216 -0.915,0.462 -1.253,0.733 -0.338,0.271 -0.508,0.654 -0.508,1.141 0,0.695 0.194,1.184 0.578,1.466 0.385,0.282 0.991,0.423 1.816,0.423 0.696,0 1.349,-0.081 1.959,-0.24 C -0.067,4.815 0.454,4.63 0.886,4.425 l 0.535,1.86 c -0.507,0.244 -1.104,0.457 -1.788,0.634 -0.687,0.179 -1.537,0.268 -2.552,0.268 -1.37,0 -2.442,-0.316 -3.212,-0.944 -0.771,-0.63 -1.157,-1.619 -1.157,-2.972 0,-0.828 0.169,-1.485 0.509,-1.973 0.338,-0.489 0.754,-0.887 1.253,-1.199 0.497,-0.31 1.043,-0.563 1.634,-0.76 0.593,-0.198 1.138,-0.404 1.635,-0.619 0.498,-0.217 0.916,-0.484 1.254,-0.803 0.337,-0.319 0.506,-0.761 0.506,-1.325 0,-0.828 -0.262,-1.399 -0.789,-1.719 -0.524,-0.32 -1.193,-0.479 -2.001,-0.479 -0.714,0 -1.418,0.102 -2.113,0.311 -0.695,0.206 -1.258,0.431 -1.691,0.675 l -0.677,-1.916 c 0.508,-0.283 1.137,-0.527 1.889,-0.733 0.751,-0.208 1.663,-0.31 2.733,-0.31 0.827,0 1.546,0.107 2.157,0.324 0.609,0.215 1.122,0.511 1.534,0.886 0.413,0.376 0.719,0.827 0.916,1.353 0.198,0.526 0.296,1.09 0.296,1.691 0,0.846 -0.169,1.527 -0.507,2.044 C 0.916,-0.766 0.498,-0.338 0,0"
             id="path172"
             style="fill:#ffffff;fill-opacity:1;fill-rule:nonzero;stroke:none" />
        </g>
        <g
           transform="translate(212.2018,280.3076)"
           id="g174">
          <path
             d="m 0,0 c -0.095,-0.244 -0.239,-0.499 -0.437,-0.762 -0.197,-0.263 -0.446,-0.502 -0.746,-0.717 -0.3,-0.216 -0.723,-0.395 -1.269,-0.536 -0.545,-0.141 -1.081,-0.211 -1.606,-0.211 -0.733,0 -1.335,0.211 -1.803,0.634 -0.471,0.424 -0.706,0.963 -0.706,1.62 0,0.469 0.183,0.949 0.55,1.438 0.367,0.488 0.98,0.765 1.845,0.83 0.863,0.067 1.719,0.099 2.564,0.099 0.265,0 0.53,-0.005 0.803,-0.014 0.271,-0.01 0.54,-0.024 0.803,-0.041 l 0,-2.341 0.002,0 L 0,0 z m 2.493,-2.353 c -0.252,0.648 -0.38,1.32 -0.38,2.015 0,0.958 0.028,1.972 0.085,3.044 0.056,1.07 0.084,2.17 0.084,3.297 0,0.507 -0.051,1.014 -0.155,1.522 -0.104,0.507 -0.31,0.972 -0.62,1.394 -0.31,0.422 -0.76,0.766 -1.353,1.028 -0.593,0.261 -1.377,0.395 -2.353,0.395 -1.033,0 -2.025,-0.103 -2.972,-0.309 C -6.119,9.825 -6.952,9.506 -7.665,9.074 l 0.704,-1.692 c 0.264,0.151 0.569,0.287 0.917,0.408 0.346,0.123 0.714,0.226 1.098,0.311 0.384,0.084 0.762,0.151 1.127,0.196 0.367,0.048 0.71,0.071 1.029,0.071 1.088,0 1.842,-0.207 2.254,-0.619 0.413,-0.415 0.62,-1.137 0.62,-2.17 C 0.084,5.127 0.055,4.62 0,4.057 -0.264,4.094 -0.521,4.112 -0.774,4.112 l -0.776,0 c -1.296,0 -2.527,-0.07 -3.692,-0.211 C -6.408,3.76 -7.309,3.249 -7.948,2.367 -8.587,1.481 -8.906,0.627 -8.906,-0.199 c 0,-0.619 0.108,-1.174 0.324,-1.662 0.214,-0.489 0.512,-0.908 0.887,-1.255 0.376,-0.349 0.822,-0.615 1.339,-0.803 0.517,-0.187 1.075,-0.282 1.675,-0.282 0.601,0 1.203,0.067 1.805,0.198 0.601,0.129 1.08,0.296 1.437,0.492 0.356,0.198 0.662,0.424 0.916,0.677 0.252,0.254 0.465,0.511 0.634,0.775 l 0.141,0 c 0.395,-1.314 0.884,-1.972 1.465,-1.972 l 2.001,0 c -0.562,0.47 -0.97,1.03 -1.225,1.678"
             id="path176"
             style="fill:#ffffff;fill-opacity:1;fill-rule:nonzero;stroke:none" />
        </g>
        <g
           transform="translate(231.7556,280.9833)"
           id="g178">
          <path
             d="m 0,0 c -0.208,-1.014 -0.591,-1.77 -1.155,-2.269 -0.564,-0.497 -1.324,-0.746 -2.282,-0.746 -0.659,0 -1.218,0.135 -1.677,0.408 -0.46,0.274 -0.831,0.643 -1.113,1.114 -0.282,0.468 -0.485,1.031 -0.605,1.69 -0.123,0.659 -0.183,1.371 -0.183,2.143 0,1.878 0.365,3.246 1.098,4.1 0.734,0.855 1.749,1.282 3.044,1.282 0.715,0 1.287,-0.057 1.72,-0.169 0.431,-0.113 0.818,-0.301 1.154,-0.564 l 0,-6.99 L 0,-0.001 0,0 z m 2.254,0.197 0,14.882 -2.255,0 0,-5.862 C -0.47,9.385 -0.908,9.508 -1.31,9.583 -1.716,9.658 -2.264,9.696 -2.959,9.696 -4.949,9.696 -6.514,9.07 -7.651,7.823 -8.789,6.572 -9.355,4.744 -9.355,2.342 c 0,-2.52 0.456,-4.369 1.366,-5.553 0.912,-1.184 2.306,-1.776 4.185,-1.776 0.958,0 1.793,0.216 2.508,0.648 0.714,0.432 1.258,0.976 1.634,1.636 l 0.114,0 0.563,-2.001 1.522,0 C 2.386,-3.955 2.3,-3.188 2.284,-2.409 2.263,-1.63 2.254,-0.76 2.254,0.197"
             id="path180"
             style="fill:#ffffff;fill-opacity:1;fill-rule:nonzero;stroke:none" />
        </g>
        <g
           transform="translate(241.5702,277.9686)"
           id="g182">
          <path
             d="m 0,0 c -0.695,0 -1.286,0.151 -1.775,0.45 -0.489,0.3 -0.884,0.695 -1.184,1.185 -0.3,0.488 -0.521,1.059 -0.662,1.719 -0.141,0.658 -0.211,1.341 -0.211,2.056 0,3.626 1.279,5.43 3.832,5.412 0.695,0 1.287,-0.145 1.777,-0.437 C 2.266,10.094 2.66,9.704 2.959,9.217 3.26,8.729 3.48,8.156 3.621,7.497 3.761,6.84 3.832,6.146 3.832,5.412 3.833,1.785 2.555,-0.02 0,0 m 4.678,10.779 c -0.507,0.648 -1.151,1.145 -1.929,1.495 -0.78,0.347 -1.696,0.521 -2.748,0.521 -1.989,0 -3.517,-0.634 -4.579,-1.903 -1.061,-1.269 -1.591,-3.095 -1.591,-5.481 0,-1.11 0.122,-2.117 0.365,-3.029 0.244,-0.911 0.621,-1.691 1.129,-2.339 0.508,-0.649 1.151,-1.145 1.929,-1.494 0.779,-0.347 1.697,-0.521 2.747,-0.521 1.992,0 3.518,0.634 4.579,1.901 1.062,1.269 1.594,3.095 1.594,5.481 0,1.109 -0.124,2.119 -0.367,3.03 -0.247,0.912 -0.621,1.691 -1.129,2.339"
             id="path184"
             style="fill:#ffffff;fill-opacity:1;fill-rule:nonzero;stroke:none" />
        </g>
        <g
           transform="translate(277.4241,296.3852)"
           id="g186">
          <path
             d="m 0,0 -2.734,0 -2.45,-4.03 1.747,0 L 0,0 z"
             id="path188"
             style="fill:#ffffff;fill-opacity:1;fill-rule:nonzero;stroke:none" />
        </g>
        <g
           transform="translate(273.7046,278.4072)"
           id="g190">
          <path
             d="m 0,0 c -2.424,0 -4.115,2.253 -4.115,5.241 0,2.565 1.269,5.27 4.172,5.27 2.931,0 4.086,-2.903 4.086,-5.213 C 4.143,2.225 2.368,0 0,0 m 0.114,12.37 c -3.75,0 -6.764,-2.678 -6.764,-7.214 0,-4.313 2.873,-7.017 6.538,-7.017 3.268,0 6.791,2.198 6.791,7.242 0,4.142 -2.649,6.989 -6.565,6.989"
             id="path192"
             style="fill:#ffffff;fill-opacity:1;fill-rule:nonzero;stroke:none" />
        </g>
        <g
           transform="translate(291.5427,282.5755)"
           id="g194">
          <path
             d="m 0,0 c 0,-0.393 -0.028,-0.733 -0.112,-1.07 -0.452,-1.831 -1.972,-2.96 -3.635,-2.96 -2.649,0 -4.03,2.284 -4.03,5.045 0,2.987 1.522,5.241 4.087,5.241 1.859,0 3.212,-1.296 3.578,-2.845 C -0.028,3.1 0,2.678 0,2.368 L 0,0 z m 2.452,14.289 -2.452,0 0,-8.145 -0.055,0 c -0.621,1.071 -2.001,2.057 -4.115,2.057 -3.297,0 -6.144,-2.762 -6.115,-7.298 0,-4.144 2.565,-6.932 5.861,-6.932 2.226,0 3.86,1.154 4.593,2.676 l 0.086,0 0.112,-2.367 2.198,0 c -0.056,0.93 -0.113,2.311 -0.113,3.522 l 0,16.487 z"
             id="path196"
             style="fill:#ffffff;fill-opacity:1;fill-rule:nonzero;stroke:none" />
        </g>
        <g
           transform="translate(311.4426,282.6613)"
           id="g198">
          <path
             d="m 0,0 c 0,-0.424 -0.057,-0.903 -0.197,-1.325 -0.508,-1.577 -1.889,-2.536 -3.438,-2.536 -2.649,0 -4.03,2.226 -4.03,4.904 0,3.156 1.691,5.157 4.058,5.157 1.832,0 3.016,-1.184 3.466,-2.649 C -0.028,3.24 0,2.873 0,2.451 L 0,0 z m 0.31,5.776 -0.056,0 c -0.62,1.129 -1.888,2.34 -4.256,2.34 -3.156,0 -6.171,-2.593 -6.171,-7.214 0,-3.777 2.424,-6.652 5.805,-6.652 2.114,0 3.608,1.015 4.34,2.284 l 0.056,0 0,-1.494 c 0,-3.466 -1.86,-4.79 -4.396,-4.79 -1.69,0 -3.1,0.507 -4.002,1.099 l -0.621,-1.917 c 1.1,-0.733 2.904,-1.127 4.539,-1.127 1.719,0 3.635,0.424 4.988,1.634 1.296,1.213 1.944,3.1 1.944,6.256 l 0,7.919 c 0,1.634 0.028,2.762 0.112,3.72 l -2.197,0 L 0.31,5.776 z"
             id="path200"
             style="fill:#ffffff;fill-opacity:1;fill-rule:nonzero;stroke:none" />
        </g>
        <g
           transform="translate(322.1349,278.4072)"
           id="g202">
          <path
             d="m 0,0 c -2.423,0 -4.114,2.253 -4.114,5.241 0,2.565 1.268,5.27 4.171,5.27 2.93,0 4.086,-2.903 4.086,-5.213 C 4.143,2.225 2.367,0 0,0 m 0.114,12.37 c -3.749,0 -6.764,-2.678 -6.764,-7.214 0,-4.313 2.874,-7.017 6.538,-7.017 3.268,0 6.791,2.198 6.791,7.242 -0.001,4.142 -2.65,6.989 -6.565,6.989"
             id="path204"
             style="fill:#ffffff;fill-opacity:1;fill-rule:nonzero;stroke:none" />
        </g>
        <g
           transform="translate(297.6978,295.8784)"
           id="g206">
          <path
             d="m 0,0 c -0.929,0 -1.55,-0.705 -1.55,-1.55 0,-0.846 0.592,-1.522 1.493,-1.522 0.987,0 1.579,0.676 1.579,1.522 C 1.522,-0.677 0.901,0 0,0"
             id="path208"
             style="fill:#ffffff;fill-opacity:1;fill-rule:nonzero;stroke:none" />
        </g>
        <path
           d="m 296.457,290.496 2.48,0 0,-13.641 -2.48,0 0,13.641 z"
           id="path210"
           style="fill:#ffffff;fill-opacity:1;fill-rule:nonzero;stroke:none" />
        <g
           transform="translate(166.734,268.2264)"
           id="g212">
          <path
             d="m 0,0 1.249,0 0,-8.528 4.086,0 0,-1.036 L 0,-9.564 0,0 z"
             id="path214"
             style="fill:#ffffff;fill-opacity:1;fill-rule:nonzero;stroke:none" />
        </g>
        <path
           d="m 176.242,265.53 1.249,0 0,-6.867 -1.249,0 0,6.867 z m 1.391,1.93 c 0,-0.426 -0.297,-0.766 -0.795,-0.766 -0.454,0 -0.751,0.34 -0.751,0.766 0,0.426 0.311,0.779 0.779,0.779 0.455,0.001 0.767,-0.34 0.767,-0.779"
           id="path216"
           style="fill:#ffffff;fill-opacity:1;fill-rule:nonzero;stroke:none" />
        <g
           transform="translate(182.884,265.5301)"
           id="g218">
          <path
             d="M 0,0 1.348,-3.845 C 1.575,-4.483 1.759,-5.05 1.9,-5.618 l 0.042,0 c 0.156,0.568 0.354,1.135 0.581,1.773 L 3.858,0 5.164,0 2.468,-6.867 1.275,-6.867 -1.335,0 0,0 z"
             id="path220"
             style="fill:#ffffff;fill-opacity:1;fill-rule:nonzero;stroke:none" />
        </g>
        <g
           transform="translate(192.0652,263.3878)"
           id="g222">
          <path
             d="m 0,0 c 0,0.809 -0.014,1.504 -0.057,2.142 l 1.093,0 0.057,-1.362 0.042,0 c 0.313,0.922 1.079,1.505 1.916,1.505 0.127,0 0.227,-0.014 0.341,-0.029 l 0,-1.177 C 3.265,1.106 3.136,1.106 2.966,1.106 2.086,1.106 1.461,0.454 1.291,-0.483 1.262,-0.653 1.249,-0.866 1.249,-1.064 l 0,-3.661 -1.25,0 L 0,0 z"
             id="path224"
             style="fill:#ffffff;fill-opacity:1;fill-rule:nonzero;stroke:none" />
        </g>
        <g
           transform="translate(200.1842,262.0822)"
           id="g226">
          <path
             d="m 0,0 c 0,-1.505 0.851,-2.64 2.071,-2.64 1.192,0 2.085,1.122 2.085,2.668 0,1.164 -0.581,2.625 -2.057,2.625 C 0.637,2.653 0,1.291 0,0 m 5.434,0.072 c 0,-2.541 -1.774,-3.647 -3.421,-3.647 -1.844,0 -3.292,1.363 -3.292,3.534 0,2.284 1.518,3.633 3.406,3.633 C 4.099,3.59 5.434,2.157 5.434,0.072"
             id="path228"
             style="fill:#ffffff;fill-opacity:1;fill-rule:nonzero;stroke:none" />
        </g>
        <g
           transform="translate(209.8615,259.9257)"
           id="g230">
          <path
             d="m 0,0 c 0.383,-0.227 1.036,-0.483 1.66,-0.483 0.894,0 1.32,0.441 1.32,1.022 0,0.596 -0.355,0.908 -1.263,1.249 -1.249,0.454 -1.831,1.121 -1.831,1.944 0,1.108 0.909,2.015 2.37,2.015 0.695,0 1.307,-0.185 1.676,-0.426 L 3.634,4.412 C 3.365,4.583 2.868,4.824 2.23,4.824 1.491,4.824 1.094,4.398 1.094,3.886 1.094,3.318 1.491,3.063 2.385,2.709 3.563,2.27 4.187,1.673 4.187,0.652 c 0,-1.221 -0.951,-2.071 -2.554,-2.071 -0.75,0 -1.447,0.198 -1.928,0.482 L 0,0 z"
             id="path232"
             style="fill:#ffffff;fill-opacity:1;fill-rule:nonzero;stroke:none" />
        </g>
        <g
           transform="translate(228.693,262.7634)"
           id="g234">
          <path
             d="M 0,0 C 0.014,0.78 -0.326,2.014 -1.731,2.014 -3.009,2.014 -3.547,0.866 -3.646,0 L 0,0 z m -3.66,-0.893 c 0.028,-1.69 1.093,-2.384 2.354,-2.384 0.894,0 1.449,0.156 1.901,0.354 l 0.227,-0.894 c -0.438,-0.198 -1.206,-0.438 -2.298,-0.438 -2.113,0 -3.376,1.403 -3.376,3.477 0,2.07 1.22,3.689 3.221,3.689 2.256,0 2.837,-1.958 2.837,-3.222 0,-0.255 -0.014,-0.439 -0.042,-0.581 L -3.66,-0.893 z"
             id="path236"
             style="fill:#ffffff;fill-opacity:1;fill-rule:nonzero;stroke:none" />
        </g>
        <g
           transform="translate(241.4093,267.1757)"
           id="g238">
          <path
             d="m 0,0 -2.909,0 0,1.051 7.081,0 0,-1.051 -2.923,0 0,-8.514 L 0,-8.514 0,0 z"
             id="path240"
             style="fill:#ffffff;fill-opacity:1;fill-rule:nonzero;stroke:none" />
        </g>
        <g
           transform="translate(252.7902,262.7634)"
           id="g242">
          <path
             d="M 0,0 C 0.014,0.78 -0.326,2.014 -1.731,2.014 -3.008,2.014 -3.548,0.866 -3.646,0 L 0,0 z m -3.661,-0.893 c 0.029,-1.69 1.092,-2.384 2.355,-2.384 0.893,0 1.447,0.156 1.9,0.354 l 0.227,-0.894 c -0.439,-0.198 -1.205,-0.438 -2.298,-0.438 -2.114,0 -3.377,1.403 -3.377,3.477 0,2.07 1.222,3.689 3.223,3.689 2.255,0 2.837,-1.958 2.837,-3.222 0,-0.255 -0.014,-0.439 -0.043,-0.581 l -4.824,-0.001 z"
             id="path244"
             style="fill:#ffffff;fill-opacity:1;fill-rule:nonzero;stroke:none" />
        </g>
        <g
           transform="translate(263.2771,258.904)"
           id="g246">
          <path
             d="m 0,0 c -0.325,-0.155 -1.049,-0.397 -1.972,-0.397 -2.07,0 -3.42,1.404 -3.42,3.504 0,2.115 1.448,3.662 3.689,3.662 0.738,0 1.392,-0.185 1.732,-0.37 l -0.284,-0.95 c -0.298,0.155 -0.767,0.326 -1.449,0.326 -1.574,0 -2.426,-1.178 -2.426,-2.597 0,-1.589 1.022,-2.569 2.383,-2.569 0.71,0 1.177,0.171 1.533,0.326 L 0,0 z"
             id="path248"
             style="fill:#ffffff;fill-opacity:1;fill-rule:nonzero;stroke:none" />
        </g>
        <g
           transform="translate(267.5786,263.6716)"
           id="g250">
          <path
             d="m 0,0 c 0,0.723 -0.014,1.291 -0.057,1.858 l 1.108,0 0.07,-1.135 0.029,0 c 0.341,0.639 1.135,1.278 2.269,1.278 0.951,0 2.427,-0.568 2.427,-2.923 l 0,-4.087 -1.249,0 0,3.958 c 0,1.108 -0.411,2.03 -1.59,2.03 C 2.198,0.979 1.56,0.397 1.333,-0.299 1.276,-0.454 1.247,-0.667 1.247,-0.88 l 0,-4.129 -1.249,0 L 0,0 z"
             id="path252"
             style="fill:#ffffff;fill-opacity:1;fill-rule:nonzero;stroke:none" />
        </g>
        <g
           transform="translate(279.0737,262.0822)"
           id="g254">
          <path
             d="m 0,0 c 0,-1.505 0.852,-2.64 2.071,-2.64 1.192,0 2.086,1.122 2.086,2.668 C 4.157,1.192 3.576,2.653 2.1,2.653 0.639,2.653 0,1.291 0,0 m 5.434,0.072 c 0,-2.541 -1.774,-3.647 -3.42,-3.647 -1.844,0 -3.292,1.363 -3.292,3.534 0,2.284 1.519,3.633 3.406,3.633 C 4.101,3.59 5.434,2.157 5.434,0.072"
             id="path256"
             style="fill:#ffffff;fill-opacity:1;fill-rule:nonzero;stroke:none" />
        </g>
        <path
           d="m 288.923,268.737 1.249,0 0,-10.075 -1.249,0 0,10.075 z"
           id="path258"
           style="fill:#ffffff;fill-opacity:1;fill-rule:nonzero;stroke:none" />
        <g
           transform="translate(295.8908,262.0822)"
           id="g260">
          <path
             d="m 0,0 c 0,-1.505 0.852,-2.64 2.07,-2.64 1.193,0 2.087,1.122 2.087,2.668 C 4.157,1.192 3.576,2.653 2.1,2.653 0.638,2.653 0,1.291 0,0 m 5.434,0.072 c 0,-2.541 -1.774,-3.647 -3.42,-3.647 -1.845,0 -3.292,1.363 -3.292,3.534 0,2.284 1.519,3.633 3.405,3.633 C 4.1,3.59 5.434,2.157 5.434,0.072"
             id="path262"
             style="fill:#ffffff;fill-opacity:1;fill-rule:nonzero;stroke:none" />
        </g>
        <g
           transform="translate(310.3661,262.8202)"
           id="g264">
          <path
             d="m 0,0 c 0,0.212 -0.014,0.397 -0.071,0.553 -0.227,0.738 -0.824,1.334 -1.745,1.334 -1.192,0 -2.043,-1.008 -2.043,-2.597 0,-1.348 0.694,-2.468 2.03,-2.468 0.779,0 1.476,0.481 1.73,1.276 0.071,0.214 0.1,0.455 0.1,0.668 L 0,0 z m 1.248,-3.151 c 0,-1.589 -0.326,-2.539 -0.979,-3.149 -0.681,-0.609 -1.646,-0.824 -2.512,-0.824 -0.822,0 -1.731,0.2 -2.285,0.568 l 0.313,0.965 c 0.454,-0.296 1.163,-0.553 2.013,-0.553 1.279,0 2.214,0.667 2.214,2.413 l 0,0.751 -0.028,0 c -0.37,-0.638 -1.121,-1.148 -2.186,-1.148 -1.703,0 -2.921,1.447 -2.921,3.348 0,2.327 1.518,3.633 3.107,3.633 1.193,0 1.831,-0.611 2.142,-1.179 l 0.029,0 0.042,1.036 1.108,0 C 1.262,2.228 1.248,1.66 1.248,0.837 l 0,-3.988 z"
             id="path266"
             style="fill:#ffffff;fill-opacity:1;fill-rule:nonzero;stroke:none" />
        </g>
        <path
           d="m 316.426,265.53 1.249,0 0,-6.867 -1.249,0 0,6.867 z m 1.391,1.93 c 0,-0.426 -0.298,-0.766 -0.795,-0.766 -0.454,0 -0.752,0.34 -0.752,0.766 0,0.426 0.312,0.779 0.78,0.779 0.454,0.001 0.767,-0.34 0.767,-0.779"
           id="path268"
           style="fill:#ffffff;fill-opacity:1;fill-rule:nonzero;stroke:none" />
        <g
           transform="translate(326.2032,262.1667)"
           id="g270">
          <path
             d="m 0,0 c -1.362,0.029 -2.909,-0.212 -2.909,-1.546 0,-0.823 0.54,-1.192 1.164,-1.192 0.909,0 1.489,0.568 1.688,1.149 C -0.015,-1.447 0,-1.306 0,-1.192 L 0,0 z m 1.206,-1.858 c 0,-0.596 0.028,-1.178 0.099,-1.647 l -1.12,0 -0.1,0.865 -0.042,0 c -0.383,-0.54 -1.121,-1.022 -2.1,-1.022 -1.39,0 -2.099,0.979 -2.099,1.972 0,1.66 1.476,2.569 4.128,2.554 l 0,0.142 c 0,0.553 -0.155,1.59 -1.561,1.575 -0.653,0 -1.32,-0.184 -1.801,-0.511 l -0.284,0.837 c 0.567,0.354 1.404,0.596 2.269,0.596 2.1,0 2.611,-1.433 2.611,-2.795 l 0,-2.566 z"
             id="path272"
             style="fill:#ffffff;fill-opacity:1;fill-rule:nonzero;stroke:none" />
        </g>
        <g
           transform="translate(116.9845,308.8704)"
           id="g274">
          <path
             d="m 0,0 -11.49,-11.655 0,-41.811 11.49,-11.656 39.057,0 0,11.22 0,0.436 -27.11,0 -11.947,0 0,11.947 0,17.918 0,11.946 11.947,0 27.11,0 0,0.327 L 39.057,0 0,0 z"
             id="path276"
             style="fill:#ffffff;fill-opacity:1;fill-rule:nonzero;stroke:none" />
        </g>
        <g
           transform="translate(116.9844,255.1543)"
           id="g278">
          <path
             d="m 0,0 -0.25,0.25 0,41.811 0.25,0.25 39.057,0 0.25,-0.25 0,-11.838 -0.25,-0.25 -27.143,0 0,-17.744 27.143,0 0.25,-0.25 0,-11.729 L 39.057,0 0,0 z"
             id="path280"
             style="fill:#ffffff;fill-opacity:1;fill-rule:nonzero;stroke:none" />
        </g>
        <g
           transform="translate(156.0417,297.7158)"
           id="g282">
          <path
             d="m 0,0 -27.111,0 -11.946,0 -0.5,-0.5 0,-11.947 0,-17.918 0,-11.946 0.5,-0.5 11.946,0 27.111,0 0.5,0.5 0,11.728 -0.5,0.5 -26.893,0 0,17.244 26.893,0 0.5,0.5 L 0.5,-0.5 0,0 z m 0,-0.5 0,-11.839 -27.393,0 0,-18.244 27.393,0 0,-11.728 -27.111,0 -11.946,0 0,11.946 0,17.918 0,11.947 11.946,0 27.111,0 z"
             id="path284"
             style="fill:#385670;fill-opacity:1;fill-rule:nonzero;stroke:none" />
        </g>
      </g>
    </g>
  </g>
</svg>
