<?xml version="1.0" encoding="UTF-8" standalone="no"?>
<!-- Created with Inkscape (http://www.inkscape.org/) -->

<svg
   xmlns:dc="http://purl.org/dc/elements/1.1/"
   xmlns:cc="http://creativecommons.org/ns#"
   xmlns:rdf="http://www.w3.org/1999/02/22-rdf-syntax-ns#"
   xmlns:svg="http://www.w3.org/2000/svg"
   xmlns="http://www.w3.org/2000/svg"
   version="1.1"
   width="178"
   height="172.07001"
   id="svg4356">
  <defs
     id="defs4358">
    <clipPath
       id="clipPath4035">
      <path
         d="M 0,600 960,600 960,0 0,0 0,600 z"
         id="path4037" />
    </clipPath>
    <clipPath
       id="clipPath3981">
      <path
         d="M 0,600 960,600 960,0 0,0 0,600 z"
         id="path3983" />
    </clipPath>
  </defs>
  <metadata
     id="metadata4361">
    <rdf:RDF>
      <cc:Work
         rdf:about="">
        <dc:format>image/svg+xml</dc:format>
        <dc:type
           rdf:resource="http://purl.org/dc/dcmitype/StillImage" />
        <dc:title></dc:title>
      </cc:Work>
    </rdf:RDF>
  </metadata>
  <g
     transform="translate(559.98349,-217.75797)"
     id="layer1">
    <g
       transform="matrix(1.25,0,0,-1.25,-1399.5626,598.93088)"
       id="g3977">
      <g
         clip-path="url(#clipPath3981)"
         id="g3979">
        <g
           transform="translate(555.1739,191.16)"
           id="g3985">
          <path
             d="m 0,0 c 0,-1.72 -1.71,-3.12 -3.82,-3.12 l -161.48,0 c -2.11,0 -3.82,1.4 -3.82,3.12 l 0,87.47 c 0,1.72 1.71,3.12 3.82,3.12 l 161.48,0 C -1.71,90.59 0,89.19 0,87.47 L 0,0 z m 0.94,111.78 -171,0 c -2.21,0 -4,-1.79 -4,-4 l 0,-112.09 c 0,-2.21 1.79,-4 4,-4 l 171,0 c 2.21,0 4,1.79 4,4 l 0,112.09 c 0,2.21 -1.79,4 -4,4"
             id="path3987"
             style="fill:#ffffff;fill-opacity:1;fill-rule:nonzero;stroke:none" />
        </g>
        <path
           d="m 539.614,286.5 -13,0 0,13 13,0 0,-13 z"
           id="path3989"
           style="fill:none;stroke:#3f6e97;stroke-width:2;stroke-linecap:butt;stroke-linejoin:round;stroke-miterlimit:10;stroke-opacity:1;stroke-dasharray:none" />
        <g
           transform="translate(522.1139,286.5)"
           id="g3991">
          <path
             d="M 0,0 -13,0"
             id="path3993"
             style="fill:none;stroke:#3f6e97;stroke-width:2;stroke-linecap:round;stroke-linejoin:round;stroke-miterlimit:10;stroke-opacity:1;stroke-dasharray:none" />
        </g>
        <g
           transform="translate(553.7101,287.4038)"
           id="g3995">
          <path
             d="M 0,0 -9.192,9.192"
             id="path3997"
             style="fill:none;stroke:#3f6e97;stroke-width:2;stroke-linecap:round;stroke-linejoin:round;stroke-miterlimit:10;stroke-opacity:1;stroke-dasharray:none" />
        </g>
        <g
           transform="translate(544.5177,287.4038)"
           id="g3999">
          <path
             d="M 0,0 9.192,9.192"
             id="path4001"
             style="fill:none;stroke:#3f6e97;stroke-width:2;stroke-linecap:round;stroke-linejoin:round;stroke-miterlimit:10;stroke-opacity:1;stroke-dasharray:none" />
        </g>
        <g
           transform="translate(477.26,226.1706)"
           id="g4003">
          <path
             d="M 0,0 13.998,-21.164 5.577,-26.553 -9.433,-3.865 -19.777,-13.849 -29.194,34.238 16.361,-0.658 0,0 z"
             id="path4005"
             style="fill:#ffffff;fill-opacity:1;fill-rule:nonzero;stroke:none" />
        </g>
      </g>
    </g>
    <g
       transform="matrix(1.25,0,0,-1.25,-1399.5626,598.93088)"
       id="g4031">
      <g
         clip-path="url(#clipPath4035)"
         id="g4033">
        <g
           transform="translate(58.9771,230.6486)"
           id="g4039">
          <path
             d="m 0,0 0,26.839 c 0,9.219 7.474,16.692 16.692,16.692 l 13.093,0 c 9.219,0 16.692,-7.473 16.692,-16.692 L 46.477,0 0,0 z"
             id="path4041"
             style="fill:#ffffff;fill-opacity:1;fill-rule:nonzero;stroke:none" />
        </g>
        <g
           transform="translate(88.7616,278.1798)"
           id="g4043">
          <path
             d="m 0,0 -13.092,0 c -11.41,0 -20.692,-9.283 -20.692,-20.692 l 0,-26.839 0,-4 4,0 46.476,0 4,0 0,4 0,26.839 C 20.692,-9.283 11.41,0 0,0 m 0,-4 c 9.219,0 16.692,-7.473 16.692,-16.692 l 0,-26.839 -46.476,0 0,26.839 c 0,9.219 7.473,16.692 16.692,16.692 L 0,-4 z"
             id="path4045"
             style="fill:#3f6e97;fill-opacity:1;fill-rule:nonzero;stroke:none" />
        </g>
        <g
           transform="translate(95.7782,289.379)"
           id="g4047">
          <path
             d="m 0,0 c 0,7.49 -6.072,13.563 -13.563,13.563 -7.49,0 -13.562,-6.073 -13.562,-13.563 0,-7.491 6.072,-13.563 13.562,-13.563 C -6.072,-13.563 0,-7.491 0,0"
             id="path4049"
             style="fill:#ffffff;fill-opacity:1;fill-rule:nonzero;stroke:none" />
        </g>
        <g
           transform="translate(82.2156,304.9416)"
           id="g4051">
          <path
             d="m 0,0 c -8.581,0 -15.563,-6.981 -15.563,-15.563 0,-8.581 6.982,-15.562 15.563,-15.562 8.581,0 15.563,6.981 15.563,15.562 C 15.563,-6.981 8.581,0 0,0 m 0,-2 c 7.49,0 13.563,-6.072 13.563,-13.563 0,-7.49 -6.073,-13.562 -13.563,-13.562 -7.491,0 -13.563,6.072 -13.563,13.562 C -13.563,-8.072 -7.491,-2 0,-2"
             id="path4053"
             style="fill:#3f6e97;fill-opacity:1;fill-rule:nonzero;stroke:none" />
        </g>
        <g
           transform="translate(105.454,230.6486)"
           id="g4055">
          <path
             d="m 0,0 0,26.839 c 0,9.219 7.473,16.692 16.692,16.692 l 13.093,0 c 9.218,0 16.692,-7.473 16.692,-16.692 L 46.477,0 0,0 z"
             id="path4057"
             style="fill:#ffffff;fill-opacity:1;fill-rule:nonzero;stroke:none" />
        </g>
        <g
           transform="translate(135.2386,278.1798)"
           id="g4059">
          <path
             d="m 0,0 -13.092,0 c -11.41,0 -20.693,-9.283 -20.693,-20.692 l 0,-26.839 0,-4 4,0 46.477,0 4,0 0,4 0,26.839 C 20.692,-9.283 11.41,0 0,0 m 0,-4 c 9.219,0 16.692,-7.473 16.692,-16.692 l 0,-26.839 -46.477,0 0,26.839 c 0,9.219 7.474,16.692 16.693,16.692 L 0,-4 z"
             id="path4061"
             style="fill:#3f6e97;fill-opacity:1;fill-rule:nonzero;stroke:none" />
        </g>
        <g
           transform="translate(142.2551,289.379)"
           id="g4063">
          <path
             d="m 0,0 c 0,7.49 -6.072,13.563 -13.563,13.563 -7.49,0 -13.562,-6.073 -13.562,-13.563 0,-7.491 6.072,-13.563 13.562,-13.563 C -6.072,-13.563 0,-7.491 0,0"
             id="path4065"
             style="fill:#ffffff;fill-opacity:1;fill-rule:nonzero;stroke:none" />
        </g>
        <g
           transform="translate(128.6925,304.9416)"
           id="g4067">
          <path
             d="m 0,0 c -8.581,0 -15.563,-6.981 -15.563,-15.563 0,-8.581 6.982,-15.562 15.563,-15.562 8.581,0 15.563,6.981 15.563,15.562 C 15.563,-6.981 8.581,0 0,0 m 0,-2 c 7.49,0 13.563,-6.072 13.563,-13.563 0,-7.49 -6.073,-13.562 -13.563,-13.562 -7.49,0 -13.563,6.072 -13.563,13.562 C -13.563,-8.072 -7.49,-2 0,-2"
             id="path4069"
             style="fill:#3f6e97;fill-opacity:1;fill-rule:nonzero;stroke:none" />
        </g>
        <g
           transform="translate(153.3716,230.6486)"
           id="g4071">
          <path
             d="m 0,0 0,26.839 c 0,9.219 7.473,16.692 16.692,16.692 l 13.093,0 c 9.218,0 16.692,-7.473 16.692,-16.692 L 46.477,0 0,0 z"
             id="path4073"
             style="fill:#ffffff;fill-opacity:1;fill-rule:nonzero;stroke:none" />
        </g>
        <g
           transform="translate(183.1561,278.1798)"
           id="g4075">
          <path
             d="m 0,0 -13.092,0 c -11.41,0 -20.693,-9.283 -20.693,-20.692 l 0,-26.839 0,-4 4,0 46.477,0 4,0 0,4 0,26.839 C 20.692,-9.283 11.41,0 0,0 m 0,-4 c 9.219,0 16.692,-7.473 16.692,-16.692 l 0,-26.839 -46.477,0 0,26.839 c 0,9.219 7.474,16.692 16.693,16.692 L 0,-4 z"
             id="path4077"
             style="fill:#3f6e97;fill-opacity:1;fill-rule:nonzero;stroke:none" />
        </g>
        <g
           transform="translate(190.1727,289.379)"
           id="g4079">
          <path
             d="m 0,0 c 0,7.49 -6.072,13.563 -13.563,13.563 -7.49,0 -13.562,-6.073 -13.562,-13.563 0,-7.491 6.072,-13.563 13.562,-13.563 C -6.072,-13.563 0,-7.491 0,0"
             id="path4081"
             style="fill:#ffffff;fill-opacity:1;fill-rule:nonzero;stroke:none" />
        </g>
        <g
           transform="translate(176.6101,304.9416)"
           id="g4083">
          <path
             d="m 0,0 c -8.581,0 -15.563,-6.981 -15.563,-15.563 0,-8.581 6.982,-15.562 15.563,-15.562 8.581,0 15.563,6.981 15.563,15.562 C 15.563,-6.981 8.581,0 0,0 m 0,-2 c 7.49,0 13.563,-6.072 13.563,-13.563 0,-7.49 -6.073,-13.562 -13.563,-13.562 -7.49,0 -13.563,6.072 -13.563,13.562 C -13.563,-8.072 -7.49,-2 0,-2"
             id="path4085"
             style="fill:#3f6e97;fill-opacity:1;fill-rule:nonzero;stroke:none" />
        </g>
        <g
           transform="translate(200.5688,230.6486)"
           id="g4087">
          <path
             d="m 0,0 0,26.839 c 0,9.219 7.473,16.692 16.692,16.692 l 13.093,0 c 9.218,0 16.692,-7.473 16.692,-16.692 L 46.477,0 0,0 z"
             id="path4089"
             style="fill:#ffffff;fill-opacity:1;fill-rule:nonzero;stroke:none" />
        </g>
        <g
           transform="translate(230.3534,278.1798)"
           id="g4091">
          <path
             d="m 0,0 -13.092,0 c -11.41,0 -20.693,-9.283 -20.693,-20.692 l 0,-26.839 0,-4 4,0 46.477,0 4,0 0,4 0,26.839 C 20.692,-9.283 11.41,0 0,0 m 0,-4 c 9.219,0 16.692,-7.473 16.692,-16.692 l 0,-26.839 -46.477,0 0,26.839 c 0,9.219 7.474,16.692 16.693,16.692 L 0,-4 z"
             id="path4093"
             style="fill:#3f6e97;fill-opacity:1;fill-rule:nonzero;stroke:none" />
        </g>
        <g
           transform="translate(237.37,289.379)"
           id="g4095">
          <path
             d="m 0,0 c 0,7.49 -6.072,13.563 -13.563,13.563 -7.49,0 -13.562,-6.073 -13.562,-13.563 0,-7.491 6.072,-13.563 13.562,-13.563 C -6.072,-13.563 0,-7.491 0,0"
             id="path4097"
             style="fill:#ffffff;fill-opacity:1;fill-rule:nonzero;stroke:none" />
        </g>
        <g
           transform="translate(223.8073,304.9416)"
           id="g4099">
          <path
             d="m 0,0 c -8.581,0 -15.563,-6.981 -15.563,-15.563 0,-8.581 6.982,-15.562 15.563,-15.562 8.581,0 15.563,6.981 15.563,15.562 C 15.563,-6.981 8.581,0 0,0 m 0,-2 c 7.49,0 13.563,-6.072 13.563,-13.563 0,-7.49 -6.073,-13.562 -13.563,-13.562 -7.49,0 -13.563,6.072 -13.563,13.562 C -13.563,-8.072 -7.49,-2 0,-2"
             id="path4101"
             style="fill:#3f6e97;fill-opacity:1;fill-rule:nonzero;stroke:none" />
        </g>
        <g
           transform="translate(82.9359,212.0724)"
           id="g4103">
          <path
             d="m 0,0 0,26.839 c 0,9.219 7.473,16.692 16.692,16.692 l 13.093,0 c 9.219,0 16.692,-7.473 16.692,-16.692 L 46.477,0 0,0 z"
             id="path4105"
             style="fill:#ffffff;fill-opacity:1;fill-rule:nonzero;stroke:none" />
        </g>
        <g
           transform="translate(112.7204,259.6036)"
           id="g4107">
          <path
             d="m 0,0 -13.092,0 c -11.41,0 -20.693,-9.283 -20.693,-20.692 l 0,-26.839 0,-4 4,0 46.477,0 4,0 0,4 0,26.839 C 20.692,-9.283 11.41,0 0,0 m 0,-4 c 9.219,0 16.692,-7.473 16.692,-16.692 l 0,-26.839 -46.477,0 0,26.839 c 0,9.219 7.474,16.692 16.693,16.692 L 0,-4 z"
             id="path4109"
             style="fill:#3f6e97;fill-opacity:1;fill-rule:nonzero;stroke:none" />
        </g>
        <g
           transform="translate(119.737,270.8027)"
           id="g4111">
          <path
             d="m 0,0 c 0,7.491 -6.072,13.563 -13.563,13.563 -7.49,0 -13.562,-6.072 -13.562,-13.563 0,-7.49 6.072,-13.563 13.562,-13.563 C -6.072,-13.563 0,-7.49 0,0"
             id="path4113"
             style="fill:#ffffff;fill-opacity:1;fill-rule:nonzero;stroke:none" />
        </g>
        <g
           transform="translate(106.1744,286.3654)"
           id="g4115">
          <path
             d="m 0,0 c -8.581,0 -15.563,-6.981 -15.563,-15.563 0,-8.581 6.982,-15.562 15.563,-15.562 8.581,0 15.563,6.981 15.563,15.562 C 15.563,-6.981 8.581,0 0,0 m 0,-2 c 7.49,0 13.563,-6.072 13.563,-13.563 0,-7.49 -6.073,-13.562 -13.563,-13.562 -7.491,0 -13.563,6.072 -13.563,13.562 C -13.563,-8.072 -7.491,-2 0,-2"
             id="path4117"
             style="fill:#3f6e97;fill-opacity:1;fill-rule:nonzero;stroke:none" />
        </g>
        <g
           transform="translate(129.4128,212.0724)"
           id="g4119">
          <path
             d="m 0,0 0,26.839 c 0,9.219 7.473,16.692 16.692,16.692 l 13.093,0 c 9.218,0 16.692,-7.473 16.692,-16.692 L 46.477,0 0,0 z"
             id="path4121"
             style="fill:#ffffff;fill-opacity:1;fill-rule:nonzero;stroke:none" />
        </g>
        <g
           transform="translate(159.1973,259.6036)"
           id="g4123">
          <path
             d="m 0,0 -13.092,0 c -11.41,0 -20.693,-9.283 -20.693,-20.692 l 0,-26.839 0,-4 4,0 46.478,0 4,0 0,4 0,26.839 C 20.693,-9.283 11.41,0 0,0 m 0,-4 c 9.219,0 16.693,-7.473 16.693,-16.692 l 0,-26.839 -46.478,0 0,26.839 c 0,9.219 7.474,16.692 16.693,16.692 L 0,-4 z"
             id="path4125"
             style="fill:#3f6e97;fill-opacity:1;fill-rule:nonzero;stroke:none" />
        </g>
        <g
           transform="translate(166.2139,270.8027)"
           id="g4127">
          <path
             d="m 0,0 c 0,7.491 -6.072,13.563 -13.563,13.563 -7.49,0 -13.562,-6.072 -13.562,-13.563 0,-7.49 6.072,-13.563 13.562,-13.563 C -6.072,-13.563 0,-7.49 0,0"
             id="path4129"
             style="fill:#ffffff;fill-opacity:1;fill-rule:nonzero;stroke:none" />
        </g>
        <g
           transform="translate(152.6513,286.3654)"
           id="g4131">
          <path
             d="m 0,0 c -8.581,0 -15.563,-6.981 -15.563,-15.563 0,-8.581 6.982,-15.562 15.563,-15.562 8.581,0 15.563,6.981 15.563,15.562 C 15.563,-6.981 8.581,0 0,0 m 0,-2 c 7.49,0 13.563,-6.072 13.563,-13.563 0,-7.49 -6.073,-13.562 -13.563,-13.562 -7.49,0 -13.563,6.072 -13.563,13.562 C -13.563,-8.072 -7.49,-2 0,-2"
             id="path4133"
             style="fill:#3f6e97;fill-opacity:1;fill-rule:nonzero;stroke:none" />
        </g>
        <g
           transform="translate(177.3304,212.0724)"
           id="g4135">
          <path
             d="m 0,0 0,26.839 c 0,9.219 7.473,16.692 16.692,16.692 l 13.093,0 c 9.218,0 16.692,-7.473 16.692,-16.692 L 46.477,0 0,0 z"
             id="path4137"
             style="fill:#ffffff;fill-opacity:1;fill-rule:nonzero;stroke:none" />
        </g>
        <g
           transform="translate(207.1149,259.6036)"
           id="g4139">
          <path
             d="m 0,0 -13.092,0 c -11.41,0 -20.693,-9.283 -20.693,-20.692 l 0,-26.839 0,-4 4,0 46.477,0 4,0 0,4 0,26.839 C 20.692,-9.283 11.41,0 0,0 m 0,-4 c 9.219,0 16.692,-7.473 16.692,-16.692 l 0,-26.839 -46.477,0 0,26.839 c 0,9.219 7.474,16.692 16.693,16.692 L 0,-4 z"
             id="path4141"
             style="fill:#3f6e97;fill-opacity:1;fill-rule:nonzero;stroke:none" />
        </g>
        <g
           transform="translate(214.1315,270.8027)"
           id="g4143">
          <path
             d="m 0,0 c 0,7.491 -6.072,13.563 -13.563,13.563 -7.49,0 -13.562,-6.072 -13.562,-13.563 0,-7.49 6.072,-13.563 13.562,-13.563 C -6.072,-13.563 0,-7.49 0,0"
             id="path4145"
             style="fill:#ffffff;fill-opacity:1;fill-rule:nonzero;stroke:none" />
        </g>
        <g
           transform="translate(200.5688,286.3654)"
           id="g4147">
          <path
             d="m 0,0 c -8.581,0 -15.563,-6.981 -15.563,-15.563 0,-8.581 6.982,-15.562 15.563,-15.562 8.581,0 15.563,6.981 15.563,15.562 C 15.563,-6.981 8.581,0 0,0 m 0,-2 c 7.49,0 13.563,-6.072 13.563,-13.563 0,-7.49 -6.073,-13.562 -13.563,-13.562 -7.49,0 -13.563,6.072 -13.563,13.562 C -13.563,-8.072 -7.49,-2 0,-2"
             id="path4149"
             style="fill:#3f6e97;fill-opacity:1;fill-rule:nonzero;stroke:none" />
        </g>
        <g
           transform="translate(107.615,193.0802)"
           id="g4151">
          <path
             d="m 0,0 0,26.839 c 0,9.219 7.473,16.692 16.692,16.692 l 13.092,0 c 9.219,0 16.693,-7.473 16.693,-16.692 L 46.477,0 0,0 z"
             id="path4153"
             style="fill:#ffffff;fill-opacity:1;fill-rule:nonzero;stroke:none" />
        </g>
        <g
           transform="translate(137.3995,240.6115)"
           id="g4155">
          <path
             d="m 0,0 -13.092,0 c -11.41,0 -20.693,-9.283 -20.693,-20.693 l 0,-26.838 0,-4 4,0 46.477,0 4,0 0,4 0,26.838 C 20.692,-9.283 11.41,0 0,0 m 0,-4 c 9.219,0 16.692,-7.474 16.692,-16.693 l 0,-26.838 -46.477,0 0,26.838 c 0,9.219 7.474,16.693 16.693,16.693 L 0,-4 z"
             id="path4157"
             style="fill:#3f6e97;fill-opacity:1;fill-rule:nonzero;stroke:none" />
        </g>
        <g
           transform="translate(144.4161,251.8106)"
           id="g4159">
          <path
             d="m 0,0 c 0,7.49 -6.072,13.563 -13.563,13.563 -7.49,0 -13.562,-6.073 -13.562,-13.563 0,-7.49 6.072,-13.563 13.562,-13.563 C -6.072,-13.563 0,-7.49 0,0"
             id="path4161"
             style="fill:#ffffff;fill-opacity:1;fill-rule:nonzero;stroke:none" />
        </g>
        <g
           transform="translate(130.8534,267.3732)"
           id="g4163">
          <path
             d="m 0,0 c -8.581,0 -15.563,-6.981 -15.563,-15.563 0,-8.581 6.982,-15.562 15.563,-15.562 8.581,0 15.563,6.981 15.563,15.562 C 15.563,-6.981 8.581,0 0,0 m 0,-2 c 7.491,0 13.563,-6.072 13.563,-13.563 0,-7.49 -6.072,-13.562 -13.563,-13.562 -7.49,0 -13.563,6.072 -13.563,13.562 C -13.563,-8.072 -7.49,-2 0,-2"
             id="path4165"
             style="fill:#3f6e97;fill-opacity:1;fill-rule:nonzero;stroke:none" />
        </g>
        <g
           transform="translate(154.0919,193.0802)"
           id="g4167">
          <path
             d="m 0,0 0,26.839 c 0,9.219 7.473,16.692 16.692,16.692 l 13.092,0 c 9.219,0 16.693,-7.473 16.693,-16.692 L 46.477,0 0,0 z"
             id="path4169"
             style="fill:#ffffff;fill-opacity:1;fill-rule:nonzero;stroke:none" />
        </g>
        <g
           transform="translate(183.8764,240.6115)"
           id="g4171">
          <path
             d="m 0,0 -13.092,0 c -11.41,0 -20.692,-9.283 -20.692,-20.693 l 0,-26.838 0,-4 4,0 46.476,0 4,0 0,4 0,26.838 C 20.692,-9.283 11.41,0 0,0 m 0,-4 c 9.219,0 16.692,-7.474 16.692,-16.693 l 0,-26.838 -46.476,0 0,26.838 c 0,9.219 7.473,16.693 16.692,16.693 L 0,-4 z"
             id="path4173"
             style="fill:#3f6e97;fill-opacity:1;fill-rule:nonzero;stroke:none" />
        </g>
        <g
           transform="translate(177.3306,237.248)"
           id="g4175">
          <path
             d="m 0,0 c -8.03,0 -14.563,6.532 -14.563,14.563 0,8.03 6.533,14.562 14.563,14.562 8.03,0 14.563,-6.532 14.563,-14.562 C 14.563,6.532 8.03,0 0,0"
             id="path4177"
             style="fill:#ffffff;fill-opacity:1;fill-rule:nonzero;stroke:none" />
        </g>
        <g
           transform="translate(177.3304,267.3732)"
           id="g4179">
          <path
             d="m 0,0 c -8.581,0 -15.563,-6.981 -15.563,-15.563 0,-8.581 6.982,-15.562 15.563,-15.562 8.581,0 15.563,6.981 15.563,15.562 C 15.563,-6.981 8.581,0 0,0 m 0,-2 c 7.49,0 13.563,-6.072 13.563,-13.563 0,-7.49 -6.073,-13.562 -13.563,-13.562 -7.491,0 -13.563,6.072 -13.563,13.562 C -13.563,-8.072 -7.491,-2 0,-2"
             id="path4181"
             style="fill:#3f6e97;fill-opacity:1;fill-rule:nonzero;stroke:none" />
        </g>
        <g
           transform="translate(129.4128,171.2824)"
           id="g4183">
          <path
             d="m 0,0 0,26.839 c 0,9.219 7.473,16.692 16.692,16.692 l 13.093,0 c 9.218,0 16.692,-7.473 16.692,-16.692 L 46.477,0 0,0 z"
             id="path4185"
             style="fill:#ffffff;fill-opacity:1;fill-rule:nonzero;stroke:none" />
        </g>
        <g
           transform="translate(159.1973,218.8136)"
           id="g4187">
          <path
             d="m 0,0 -13.092,0 c -11.41,0 -20.693,-9.283 -20.693,-20.692 l 0,-26.839 0,-4 4,0 46.478,0 4,0 0,4 0,26.839 C 20.693,-9.283 11.41,0 0,0 m 0,-4 c 9.219,0 16.693,-7.473 16.693,-16.692 l 0,-26.839 -46.478,0 0,26.839 c 0,9.219 7.474,16.692 16.693,16.692 L 0,-4 z"
             id="path4189"
             style="fill:#3f6e97;fill-opacity:1;fill-rule:nonzero;stroke:none" />
        </g>
        <g
           transform="translate(166.2139,230.0128)"
           id="g4191">
          <path
             d="m 0,0 c 0,7.49 -6.072,13.563 -13.563,13.563 -7.49,0 -13.562,-6.073 -13.562,-13.563 0,-7.491 6.072,-13.563 13.562,-13.563 C -6.072,-13.563 0,-7.491 0,0"
             id="path4193"
             style="fill:#ffffff;fill-opacity:1;fill-rule:nonzero;stroke:none" />
        </g>
        <g
           transform="translate(152.6513,245.5754)"
           id="g4195">
          <path
             d="m 0,0 c -8.581,0 -15.563,-6.981 -15.563,-15.563 0,-8.581 6.982,-15.562 15.563,-15.562 8.581,0 15.563,6.981 15.563,15.562 C 15.563,-6.981 8.581,0 0,0 m 0,-2 c 7.49,0 13.563,-6.072 13.563,-13.563 0,-7.49 -6.073,-13.562 -13.563,-13.562 -7.49,0 -13.563,6.072 -13.563,13.562 C -13.563,-8.072 -7.49,-2 0,-2"
             id="path4197"
             style="fill:#3f6e97;fill-opacity:1;fill-rule:nonzero;stroke:none" />
        </g>
        <g
           transform="translate(731.8386,197.9416)"
           id="g4199">
          <path
             d="M 0,0 C -25.96,0 -47,21.04 -47,47 -47,72.96 -25.96,94 0,94 25.96,94 47,72.96 47,47 47,35.99 43.22,25.87 36.88,17.86 34.6,14.98 31.99,12.37 29.11,10.09 21.1,3.77 10.99,0 0,0 M 79.684,-24.941 44.7,10.05 C 53.01,20.08 58,32.95 58,47 c 0,32.03 -25.97,58 -58,58 -32.03,0 -58,-25.97 -58,-58 0,-32.03 25.97,-58 58,-58 14.04,0 26.91,4.98 36.93,13.28 l 27.216,-27.221 15.538,0 z"
             id="path4201"
             style="fill:#ffffff;fill-opacity:1;fill-rule:nonzero;stroke:none" />
        </g>
      </g>
    </g>
  </g>
</svg>
