<?xml version="1.0" encoding="UTF-8" standalone="no"?>
<!-- Created with Inkscape (http://www.inkscape.org/) -->

<svg
   xmlns:dc="http://purl.org/dc/elements/1.1/"
   xmlns:cc="http://creativecommons.org/ns#"
   xmlns:rdf="http://www.w3.org/1999/02/22-rdf-syntax-ns#"
   xmlns:svg="http://www.w3.org/2000/svg"
   xmlns="http://www.w3.org/2000/svg"
   version="1.1"
   width="949.56415"
   height="352.19061"
   id="svg3615">
  <defs
     id="defs3617">
    <clipPath
       id="clipPath3289">
      <path
         d="M 0,600 960,600 960,0 0,0 0,600 z"
         id="path3291" />
    </clipPath>
  </defs>
  <metadata
     id="metadata3620">
    <rdf:RDF>
      <cc:Work
         rdf:about="">
        <dc:format>image/svg+xml</dc:format>
        <dc:type
           rdf:resource="http://purl.org/dc/dcmitype/StillImage" />
        <dc:title></dc:title>
      </cc:Work>
    </rdf:RDF>
  </metadata>
  <g
     transform="translate(124.78206,-356.26688)"
     id="layer1">
    <g
       transform="matrix(1.25,0,0,-1.25,-221.03669,767.98349)"
       id="g3285">
      <g
         clip-path="url(#clipPath3289)"
         id="g3287">
        <g
           transform="translate(568.7268,299.7681)"
           id="g3293">
          <path
             d="m 0,0 c -3.119,0 -5.646,-2.321 -5.646,-5.181 l 0,-24.352 c 0,-2.861 2.527,-5.183 5.646,-5.183 3.118,0 5.645,2.322 5.645,5.183 l 0,24.352 C 5.645,-2.321 3.118,0 0,0"
             id="path3295"
             style="fill:#ffffff;fill-opacity:1;fill-rule:nonzero;stroke:none" />
        </g>
        <g
           transform="translate(634.69,299.7681)"
           id="g3297">
          <path
             d="m 0,0 c -3.116,0 -5.647,-2.321 -5.647,-5.181 l 0,-24.352 c 0,-2.861 2.531,-5.183 5.647,-5.183 3.119,0 5.646,2.322 5.646,5.183 l 0,24.352 C 5.646,-2.321 3.119,0 0,0"
             id="path3299"
             style="fill:#ffffff;fill-opacity:1;fill-rule:nonzero;stroke:none" />
        </g>
        <g
           transform="translate(576.3194,262.6145)"
           id="g3301">
          <path
             d="m 0,0 c 0,-3.504 2.869,-6.374 6.373,-6.374 l 3.911,0 0,-12.916 c 0,-2.864 2.529,-5.183 5.645,-5.183 3.12,0 5.646,2.319 5.646,5.183 l 0,12.916 7.553,0 0,-12.916 c 0,-2.864 2.527,-5.183 5.645,-5.183 3.12,0 5.644,2.319 5.644,5.183 l 0,12.916 3.838,0 c 3.505,0 6.369,2.87 6.369,6.374 l 0,36.138 L 0,36.138 0,0 z"
             id="path3303"
             style="fill:#ffffff;fill-opacity:1;fill-rule:nonzero;stroke:none" />
        </g>
        <g
           transform="translate(613.2111,309.8554)"
           id="g3305">
          <path
             d="m 0,0 c -1.179,0 -2.127,0.952 -2.127,2.128 0,1.174 0.948,2.127 2.127,2.127 1.172,0 2.128,-0.953 2.128,-2.127 C 2.128,0.952 1.172,0 0,0 m -23.128,0 c -1.173,0 -2.126,0.952 -2.126,2.128 0,1.174 0.953,2.127 2.126,2.127 1.176,0 2.129,-0.953 2.129,-2.127 C -20.999,0.952 -21.952,0 -23.128,0 M 0.898,11.126 c 0,0.008 0.003,0.011 0.008,0.013 l 4.015,7.266 c 0.199,0.363 0.069,0.821 -0.294,1.02 -0.36,0.199 -0.819,0.068 -1.02,-0.295 l -4.011,-7.262 c -0.021,-0.032 -0.027,-0.059 -0.038,-0.09 -3.36,1.513 -7.141,2.366 -11.136,2.366 -3.963,0 -7.714,-0.838 -11.053,-2.327 -0.006,0.014 -0.011,0.032 -0.019,0.051 l -4.016,7.262 c -0.201,0.363 -0.656,0.494 -1.017,0.295 -0.361,-0.199 -0.495,-0.657 -0.293,-1.02 l 3.998,-7.238 C -31.685,7.183 -36.892,-0.398 -36.892,-9.098 l 50.624,0 c 0,8.673 -5.169,16.233 -12.834,20.224"
             id="path3307"
             style="fill:#ffffff;fill-opacity:1;fill-rule:nonzero;stroke:none" />
        </g>
        <g
           transform="translate(305.5509,130.4509)"
           id="g3309">
          <path
             d="m 0,0 -6.923,0 3.329,12.131 6.898,0 L 0,0 z m 20.213,12.131 1.881,7.168 -8.548,0 4.555,17.094 -8.359,0 -4.555,-17.094 -6.883,0 4.591,17.094 -8.363,0 -4.591,-17.094 -8.451,0 -11.044,0 c -0.244,-2.205 -0.937,-4.462 -2.077,-5.925 -1.14,-1.462 -3.068,-2.312 -5.782,-2.312 -3.828,0 -6.435,1.781 -7.819,5.465 -0.76,1.971 -1.14,4.549 -1.14,7.792 0,3.403 0.38,6.115 1.14,8.169 1.438,3.872 4.112,5.801 8.022,5.801 2.742,0 4.764,-0.748 6.068,-2.535 0.896,-1.327 1.452,-2.67 1.669,-4.324 l 11.862,0 c -0.651,6.617 -2.745,10.561 -6.282,13.054 -3.538,2.492 -8.086,3.662 -13.643,3.662 -6.534,0 -11.657,-2.149 -15.371,-6.374 -3.714,-4.225 -5.57,-10.153 -5.57,-17.748 0,-6.731 1.681,-12.218 5.042,-16.443 3.362,-4.225 8.607,-6.342 15.737,-6.342 7.129,0 12.509,2.695 16.143,7.758 0.705,0.972 1.301,2.031 1.813,3.134 l 7.786,0 -3.33,-12.131 -8.513,0 -1.879,-7.168 8.494,0 -4.545,-16.542 8.363,0 4.545,16.542 6.938,0 -4.51,-16.542 8.359,0 4.51,16.542 8.559,0 1.88,7.168 -8.556,0 3.304,12.131 8.55,0 z"
             id="path3311"
             style="fill:#ffffff;fill-opacity:1;fill-rule:nonzero;stroke:none" />
        </g>
        <path
           d="m 151.805,233.685 -25.404,0 0,40.647 25.404,0 0,-40.647 z m -10.727,-3.462 c 0,-0.824 -0.394,-1.619 -1.217,-1.619 l -0.508,0 c -0.824,0 -1.662,0.795 -1.662,1.619 l 0,0.507 c 0,0.824 0.838,1.261 1.662,1.261 l 0.508,0 c 0.823,0 1.217,-0.437 1.217,-1.261 l 0,-0.507 z m -5.407,47.496 6.901,0 c 0.449,0 0.812,-0.398 0.812,-0.847 0,-0.448 -0.363,-0.847 -0.812,-0.847 l -6.901,0 c -0.448,0 -0.811,0.399 -0.811,0.847 0,0.449 0.363,0.847 0.811,0.847 m 18.956,-2.47 c 0,2.746 -2.41,4.728 -5.157,4.728 l -21.472,0 c -2.748,0 -4.985,-1.982 -4.985,-4.728 l 0,-43.29 c 0,-2.747 2.237,-5.048 4.985,-5.048 l 21.472,0 c 2.747,0 5.157,2.301 5.157,5.048 l 0,43.29 z"
           id="path3313"
           style="fill:#ffffff;fill-opacity:1;fill-rule:nonzero;stroke:none" />
        <g
           transform="translate(116.2388,247.1802)"
           id="g3315">
          <path
             d="m 0,0 c 0,-0.549 -0.641,-1.075 -1.191,-1.075 l -5.865,0 c -0.55,0 -0.848,0.526 -0.848,1.075 l 0,4.12 c 0,0.549 0.298,1.015 0.848,1.015 l 5.865,0 C -0.641,5.135 0,4.669 0,4.12 L 0,0 z m -4.312,68.41 c 1.009,0 1.827,-0.818 1.827,-1.827 0,-1.009 -0.818,-1.827 -1.827,-1.827 -1.009,0 -1.827,0.818 -1.827,1.827 0,1.009 0.818,1.827 1.827,1.827 m -21.092,-7.386 41.776,0 0,-25.404 6.209,0 0,31.359 c 0,2.746 -2.276,5.336 -5.022,5.336 l -44.252,0 c -2.746,0 -4.921,-2.59 -4.921,-5.336 l 0,-66.377 c 0,-2.746 2.175,-5.065 4.921,-5.065 l 31.774,0 0,12.42 -30.485,0 0,53.067 z"
             id="path3317"
             style="fill:#ffffff;fill-opacity:1;fill-rule:nonzero;stroke:none" />
        </g>
        <g
           transform="translate(707.1665,111.9601)"
           id="g3319">
          <path
             d="m 0,0 c -7.068,-10.153 -6.193,-23.364 -0.786,-34.153 0.121,-0.264 0.261,-0.512 0.392,-0.767 0.076,-0.165 0.162,-0.33 0.256,-0.492 0.04,-0.089 0.103,-0.188 0.154,-0.274 0.088,-0.177 0.18,-0.34 0.273,-0.508 0.174,-0.291 0.348,-0.589 0.521,-0.879 0.098,-0.162 0.191,-0.324 0.301,-0.487 0.186,-0.313 0.399,-0.622 0.592,-0.934 0.085,-0.133 0.168,-0.263 0.259,-0.394 0.279,-0.423 0.556,-0.839 0.862,-1.251 0,-0.012 0.012,-0.023 0.025,-0.027 0.045,-0.069 0.096,-0.137 0.144,-0.2 0.26,-0.357 0.521,-0.704 0.793,-1.048 0.093,-0.127 0.196,-0.255 0.289,-0.379 0.249,-0.303 0.493,-0.603 0.735,-0.9 0.092,-0.108 0.186,-0.221 0.283,-0.331 0.324,-0.391 0.667,-0.779 1.015,-1.162 0,-0.005 0.011,-0.012 0.017,-0.021 0.01,-0.015 0.023,-0.03 0.047,-0.044 0.334,-0.368 0.675,-0.728 1.023,-1.089 0.109,-0.109 0.22,-0.217 0.343,-0.334 0.264,-0.269 0.532,-0.54 0.815,-0.805 0.116,-0.112 0.232,-0.218 0.342,-0.323 0.369,-0.35 0.741,-0.698 1.129,-1.029 0.005,-0.007 0.012,-0.009 0.016,-0.014 0.063,-0.056 0.133,-0.112 0.192,-0.167 0.341,-0.29 0.683,-0.581 1.03,-0.868 0.14,-0.117 0.278,-0.225 0.416,-0.337 0.291,-0.231 0.58,-0.449 0.87,-0.67 0.15,-0.111 0.3,-0.228 0.457,-0.348 0.312,-0.233 0.637,-0.462 0.955,-0.688 0.115,-0.084 0.232,-0.167 0.354,-0.245 0.027,-0.027 0.063,-0.05 0.091,-0.073 0.318,-0.208 0.621,-0.412 0.933,-0.617 0.139,-0.088 0.272,-0.176 0.406,-0.266 0.484,-0.31 0.972,-0.607 1.452,-0.898 0.138,-0.073 0.277,-0.15 0.411,-0.226 0.358,-0.21 0.723,-0.416 1.094,-0.613 0.202,-0.112 0.405,-0.211 0.614,-0.315 0.248,-0.136 0.508,-0.276 0.776,-0.412 0.063,-0.024 0.127,-0.048 0.184,-0.08 0.109,-0.05 0.216,-0.105 0.319,-0.156 0.405,-0.2 0.822,-0.388 1.25,-0.578 0.082,-0.04 0.167,-0.073 0.255,-0.117 0.479,-0.207 0.96,-0.407 1.454,-0.602 0.115,-0.043 0.229,-0.097 0.351,-0.136 0.447,-0.174 0.908,-0.345 1.366,-0.508 0.059,-0.025 0.111,-0.042 0.17,-0.061 0.509,-0.176 1.012,-0.34 1.527,-0.5 0.12,-0.033 0.243,-0.078 0.371,-0.109 0.527,-0.159 1.035,-0.346 1.573,-0.446 34.171,-6.228 44.099,20.535 44.099,20.535 -8.34,-10.856 -23.143,-13.725 -37.162,-10.535 -0.521,0.118 -1.036,0.284 -1.564,0.44 -0.121,0.036 -0.26,0.075 -0.383,0.119 -0.508,0.152 -1.013,0.319 -1.503,0.485 -0.07,0.025 -0.145,0.049 -0.216,0.08 -0.445,0.153 -0.884,0.32 -1.325,0.49 -0.123,0.053 -0.249,0.097 -0.371,0.142 -0.486,0.192 -0.966,0.398 -1.435,0.604 -0.104,0.035 -0.192,0.081 -0.289,0.121 -0.412,0.187 -0.805,0.372 -1.205,0.564 -0.121,0.052 -0.23,0.111 -0.353,0.172 -0.313,0.146 -0.625,0.311 -0.931,0.473 -0.215,0.111 -0.424,0.211 -0.626,0.325 -0.377,0.201 -0.752,0.416 -1.128,0.625 -0.117,0.08 -0.244,0.145 -0.377,0.217 -0.486,0.289 -0.978,0.588 -1.459,0.895 -0.139,0.086 -0.266,0.172 -0.393,0.264 -0.353,0.22 -0.701,0.457 -1.042,0.687 -0.11,0.079 -0.22,0.161 -0.336,0.241 -0.331,0.231 -0.655,0.465 -0.983,0.707 -0.14,0.109 -0.283,0.218 -0.435,0.329 -0.296,0.229 -0.591,0.454 -0.885,0.692 -0.129,0.107 -0.261,0.211 -0.389,0.315 -0.382,0.306 -0.741,0.615 -1.106,0.933 -0.035,0.036 -0.086,0.07 -0.126,0.1 -0.389,0.348 -0.777,0.702 -1.159,1.058 -0.116,0.108 -0.213,0.211 -0.329,0.314 -0.277,0.272 -0.556,0.54 -0.829,0.815 -0.115,0.115 -0.22,0.222 -0.33,0.332 -0.347,0.35 -0.687,0.712 -1.024,1.083 -0.018,0.015 -0.034,0.03 -0.051,0.051 -0.355,0.388 -0.695,0.782 -1.036,1.182 -0.094,0.105 -0.18,0.216 -0.273,0.321 -0.248,0.306 -0.498,0.616 -0.753,0.924 -0.08,0.117 -0.174,0.229 -0.266,0.346 -0.296,0.38 -0.579,0.759 -0.862,1.15 C 2.094,-19.672 -0.712,-5.023 5.511,6.997"
             id="path3321"
             style="fill:#ffffff;fill-opacity:1;fill-rule:nonzero;stroke:none" />
        </g>
        <g
           transform="translate(729.1061,120.5207)"
           id="g3323">
          <path
             d="m 0,0 c -5.124,-7.352 -4.839,-17.197 -0.852,-24.975 0.659,-1.303 1.414,-2.57 2.259,-3.771 0.763,-1.1 1.609,-2.402 2.632,-3.285 0.36,-0.405 0.749,-0.8 1.148,-1.194 0.097,-0.099 0.197,-0.196 0.3,-0.298 0.382,-0.367 0.769,-0.731 1.169,-1.082 0.013,-0.015 0.035,-0.03 0.047,-0.045 0.004,-0.004 0.011,-0.009 0.011,-0.009 0.445,-0.393 0.898,-0.767 1.366,-1.131 0.11,-0.078 0.209,-0.166 0.319,-0.244 0.463,-0.361 0.939,-0.708 1.418,-1.049 0.017,-0.006 0.029,-0.018 0.053,-0.028 0.208,-0.149 0.428,-0.289 0.654,-0.433 0.098,-0.063 0.202,-0.138 0.3,-0.199 0.354,-0.231 0.7,-0.443 1.061,-0.654 0.051,-0.028 0.103,-0.055 0.155,-0.083 0.302,-0.181 0.62,-0.36 0.939,-0.523 0.108,-0.067 0.219,-0.118 0.329,-0.179 0.219,-0.109 0.44,-0.226 0.654,-0.339 0.028,-0.016 0.07,-0.03 0.103,-0.045 0.452,-0.225 0.91,-0.429 1.361,-0.636 0.111,-0.044 0.203,-0.08 0.308,-0.124 0.37,-0.159 0.746,-0.316 1.117,-0.457 0.168,-0.056 0.323,-0.121 0.48,-0.177 0.342,-0.121 0.689,-0.24 1.03,-0.351 0.168,-0.057 0.318,-0.104 0.47,-0.152 0.486,-0.155 0.978,-0.351 1.493,-0.43 26.375,-4.374 32.475,15.942 32.475,15.942 -5.493,-7.915 -16.127,-11.683 -27.474,-8.736 -0.509,0.131 -1.006,0.276 -1.493,0.433 -0.157,0.041 -0.295,0.091 -0.446,0.143 -0.352,0.112 -0.706,0.231 -1.048,0.358 -0.156,0.058 -0.318,0.117 -0.474,0.178 -0.377,0.147 -0.752,0.29 -1.118,0.455 -0.11,0.042 -0.213,0.08 -0.301,0.126 -0.468,0.203 -0.932,0.419 -1.383,0.637 -0.231,0.118 -0.457,0.234 -0.689,0.355 -0.139,0.07 -0.273,0.137 -0.394,0.201 -0.306,0.158 -0.59,0.327 -0.88,0.498 -0.068,0.036 -0.137,0.073 -0.207,0.111 -0.354,0.216 -0.718,0.43 -1.055,0.652 -0.114,0.067 -0.215,0.142 -0.323,0.212 -0.233,0.147 -0.458,0.294 -0.695,0.455 -0.48,0.332 -0.95,0.684 -1.418,1.038 -0.111,0.089 -0.214,0.17 -0.32,0.258 -4.977,3.92 -8.914,9.278 -10.778,15.348 -1.968,6.304 -1.534,13.382 1.859,19.12"
             id="path3325"
             style="fill:#ffffff;fill-opacity:1;fill-rule:nonzero;stroke:none" />
        </g>
        <g
           transform="translate(747.5492,126.9129)"
           id="g3327">
          <path
             d="m 0,0 c -3.022,-4.433 -3.311,-9.943 -1.227,-14.834 2.211,-5.199 6.731,-9.276 12,-11.206 0.213,-0.085 0.428,-0.154 0.648,-0.229 0.098,-0.028 0.191,-0.061 0.296,-0.092 0.305,-0.096 0.612,-0.212 0.931,-0.272 14.57,-2.814 18.518,7.475 19.578,8.99 -3.469,-4.985 -9.285,-6.18 -16.423,-4.447 -0.561,0.137 -1.176,0.34 -1.719,0.536 -0.696,0.247 -1.383,0.532 -2.055,0.848 -1.256,0.61 -2.474,1.345 -3.596,2.197 -6.39,4.844 -10.349,14.087 -6.182,21.616"
             id="path3329"
             style="fill:#ffffff;fill-opacity:1;fill-rule:nonzero;stroke:none" />
        </g>
        <g
           transform="translate(538.7821,113.8527)"
           id="g3331">
          <path
             d="m 0,0 11.79,7.134 c 2.274,-4.032 4.343,-7.443 9.306,-7.443 4.756,0 7.756,1.86 7.756,9.098 l 0,49.226 14.477,0 0,-49.431 c 0,-14.995 -8.789,-21.82 -21.613,-21.82 C 10.135,-13.236 3.412,-7.237 0,0.001"
             id="path3333"
             style="fill:#ffffff;fill-opacity:1;fill-rule:nonzero;stroke:none" />
        </g>
        <g
           transform="translate(589.9744,115.4036)"
           id="g3335">
          <path
             d="m 0,0 11.788,6.825 c 3.103,-5.067 7.137,-8.79 14.272,-8.79 5.999,0 9.824,2.999 9.824,7.135 0,4.965 -3.929,6.723 -10.548,9.618 L 21.718,16.34 C 11.272,20.786 4.343,26.37 4.343,38.159 c 0,10.858 8.274,19.132 21.2,19.132 9.203,0 15.822,-3.207 20.579,-11.582 L 34.85,38.469 c -2.483,4.447 -5.171,6.205 -9.307,6.205 -4.24,0 -6.928,-2.689 -6.928,-6.205 0,-4.343 2.688,-6.101 8.892,-8.79 l 3.62,-1.551 C 43.433,22.853 50.361,17.477 50.361,5.378 50.361,-7.652 40.124,-14.788 26.37,-14.788 12.926,-14.788 4.24,-8.376 0,0"
             id="path3337"
             style="fill:#ffffff;fill-opacity:1;fill-rule:nonzero;stroke:none" />
        </g>
        <g
           transform="translate(338.8281,266.6656)"
           id="g3339">
          <path
             d="m 0,0 c -0.742,-6.777 -17.078,-12.376 -37.131,-12.376 -20.055,0 -36.389,5.599 -37.131,12.376 l -0.036,0 0.362,-13.368 c 0,0 0.002,0.094 0,0 -0.181,-5.724 17.857,-12.487 36.805,-12.544 19.194,0.057 37.008,6.881 36.828,12.607 -0.003,0.094 0,0 0,0 L 0.082,0 0,0 z"
             id="path3341"
             style="fill:#eaeaeb;fill-opacity:1;fill-rule:nonzero;stroke:none" />
        </g>
        <g
           transform="translate(301.6969,253.7936)"
           id="g3343">
          <path
             d="m 0,0 c 20.053,0 36.389,5.497 37.131,12.376 0.018,0.163 0.036,0.325 0.036,0.489 0,7.106 -16.641,12.866 -37.167,12.866 -20.528,0 -37.167,-5.76 -37.167,-12.866 0,-0.164 0.018,-0.326 0.036,-0.489 C -36.389,5.497 -20.055,0 0,0"
             id="path3345"
             style="fill:#ffffff;fill-opacity:1;fill-rule:nonzero;stroke:none" />
        </g>
        <g
           transform="translate(338.8281,289.4615)"
           id="g3347">
          <path
             d="m 0,0 c -0.742,-6.777 -17.078,-12.376 -37.131,-12.376 -20.055,0 -36.389,5.599 -37.131,12.376 l -0.036,0 0.362,-13.475 c 0,0 0.002,0.095 0,0 -0.181,-5.724 17.857,-12.54 36.805,-12.599 19.194,0.059 37.008,6.963 36.828,12.688 -0.003,0.094 0,0 0,0 L 0.082,0 0,0 z"
             id="path3349"
             style="fill:#eaeaeb;fill-opacity:1;fill-rule:nonzero;stroke:none" />
        </g>
        <g
           transform="translate(301.6969,276.3753)"
           id="g3351">
          <path
             d="m 0,0 c 20.053,0 36.389,5.497 37.131,12.376 0.018,0.163 0.036,0.325 0.036,0.489 0,7.105 -16.641,12.866 -37.167,12.866 -20.528,0 -37.167,-5.761 -37.167,-12.866 0,-0.164 0.018,-0.326 0.036,-0.489 C -36.389,5.497 -20.055,0 0,0"
             id="path3353"
             style="fill:#ffffff;fill-opacity:1;fill-rule:nonzero;stroke:none" />
        </g>
        <g
           transform="translate(338.8281,312.2574)"
           id="g3355">
          <path
             d="m 0,0 c -0.742,-6.777 -17.078,-12.376 -37.131,-12.376 -20.055,0 -36.389,5.599 -37.131,12.376 l -0.036,0 0.362,-13.582 c 0,0 0.002,0.095 0,0 -0.181,-5.724 17.857,-12.594 36.805,-12.652 19.194,0.058 37.008,7.043 36.828,12.768 -0.003,0.095 0,0 0,0 L 0.082,0 0,0 z"
             id="path3357"
             style="fill:#eaeaeb;fill-opacity:1;fill-rule:nonzero;stroke:none" />
        </g>
        <g
           transform="translate(301.6969,298.9569)"
           id="g3359">
          <path
             d="m 0,0 c 20.053,0 36.389,5.497 37.131,12.376 0.018,0.163 0.036,0.325 0.036,0.489 0,7.105 -16.641,12.866 -37.167,12.866 -20.528,0 -37.167,-5.761 -37.167,-12.866 0,-0.164 0.018,-0.326 0.036,-0.489 C -36.389,5.497 -20.055,0 0,0"
             id="path3361"
             style="fill:#ffffff;fill-opacity:1;fill-rule:nonzero;stroke:none" />
        </g>
        <g
           transform="translate(154.7897,47.6208)"
           id="g3363">
          <path
             d="M 0,0 C 42.96,0 77.786,18.321 77.786,40.919 77.786,63.516 42.96,81.835 0,81.835 -42.958,81.835 -77.786,63.516 -77.786,40.919 -77.786,18.321 -42.958,0 0,0"
             id="path3365"
             style="fill:#ffffff;fill-opacity:1;fill-rule:nonzero;stroke:none" />
        </g>
        <g
           transform="translate(154.7897,50.6596)"
           id="g3367">
          <path
             d="M 0,0 C 41.282,0 74.747,16.958 74.747,37.88 74.747,58.798 41.282,75.757 0,75.757 -41.282,75.757 -74.747,58.798 -74.747,37.88 -74.747,16.958 -41.282,0 0,0"
             id="path3369"
             style="fill:#ffffff;fill-opacity:1;fill-rule:nonzero;stroke:none" />
        </g>
        <g
           transform="translate(128.8449,92.0593)"
           id="g3371">
          <path
             d="m 0,0 c -0.556,-2.858 -1.607,-4.901 -3.116,-6.062 -1.54,-1.182 -3.997,-1.783 -7.307,-1.783 l -3.961,0 2.865,14.726 5.116,0 c 3.764,0 5.277,-0.799 5.884,-1.475 C 0.327,4.475 0.505,2.603 0,0 m 41.087,-15.763 3.707,19.082 c 0.835,4.307 0.141,7.518 -2.07,9.547 -2.136,1.968 -5.77,2.921 -11.099,2.921 l -6.423,0 1.838,9.456 c 0.071,0.357 -0.024,0.726 -0.255,1.002 -0.231,0.278 -0.574,0.444 -0.938,0.444 l -8.861,0 c -0.582,0 -1.083,-0.413 -1.193,-0.984 L 11.854,5.447 c -0.355,2.282 -1.242,4.24 -2.652,5.857 -2.597,2.974 -6.711,4.483 -12.221,4.483 l -17.179,0 c -0.582,0 -1.081,-0.414 -1.193,-0.982 l -7.968,-41.01 c -0.067,-0.357 0.024,-0.724 0.255,-1 0.229,-0.282 0.575,-0.444 0.938,-0.444 l 8.93,0 c 0.584,0 1.083,0.412 1.197,0.986 l 1.925,9.914 6.65,0 c 3.489,0 6.421,0.383 8.709,1.124 2.341,0.761 4.494,2.053 6.395,3.828 1.531,1.414 2.801,2.986 3.775,4.69 l -1.592,-8.191 c -0.069,-0.36 0.024,-0.727 0.253,-1.007 0.234,-0.28 0.576,-0.444 0.942,-0.444 l 8.861,0 c 0.582,0 1.081,0.416 1.191,0.986 l 4.378,22.508 6.077,0 c 2.591,0 3.35,-0.519 3.555,-0.74 0.191,-0.201 0.58,-0.913 0.144,-3.165 l -3.526,-18.138 c -0.071,-0.36 0.024,-0.727 0.256,-1.007 0.229,-0.28 0.574,-0.444 0.935,-0.444 l 9.003,0 c 0.584,0 1.081,0.416 1.195,0.986"
             id="path3373"
             style="fill:#ffffff;fill-opacity:1;fill-rule:nonzero;stroke:none" />
        </g>
        <g
           transform="translate(198.567,92.0593)"
           id="g3375">
          <path
             d="m 0,0 c -0.56,-2.858 -1.607,-4.901 -3.12,-6.062 -1.538,-1.182 -3.995,-1.783 -7.304,-1.783 l -3.96,0 2.861,14.726 5.118,0 c 3.764,0 5.277,-0.799 5.887,-1.475 C 0.324,4.475 0.503,2.603 0,0 m 9.263,11.304 c -2.601,2.974 -6.709,4.483 -12.219,4.483 l -17.179,0 c -0.584,0 -1.085,-0.414 -1.195,-0.982 l -7.967,-41.01 c -0.072,-0.357 0.021,-0.724 0.252,-1 0.233,-0.282 0.576,-0.444 0.94,-0.444 l 8.932,0 c 0.58,0 1.083,0.412 1.193,0.986 l 1.927,9.914 6.65,0 c 3.487,0 6.419,0.383 8.709,1.124 2.341,0.761 4.494,2.053 6.392,3.828 1.583,1.455 2.885,3.094 3.873,4.855 0.986,1.765 1.694,3.735 2.106,5.852 1.018,5.228 0.203,9.395 -2.414,12.394"
             id="path3377"
             style="fill:#ffffff;fill-opacity:1;fill-rule:nonzero;stroke:none" />
        </g>
        <g
           transform="translate(100.6785,65.6253)"
           id="g3379">
          <path
             d="m 0,0 8.93,0 2.12,10.902 7.652,0 c 3.378,0 6.153,0.353 8.332,1.063 2.183,0.706 4.167,1.901 5.948,3.569 1.498,1.375 2.709,2.893 3.636,4.554 0.927,1.658 1.584,3.488 1.972,5.49 0.945,4.861 0.237,8.648 -2.136,11.358 -2.37,2.717 -6.137,4.07 -11.306,4.07 l -17.179,0 L 0,0 z m 21.764,34.533 c 3.394,0 5.656,-0.623 6.788,-1.881 1.126,-1.25 1.4,-3.402 0.807,-6.447 -0.619,-3.177 -1.807,-5.439 -3.57,-6.797 -1.759,-1.357 -4.447,-2.034 -8.046,-2.034 l -5.433,0 3.335,17.159 6.119,0 z"
             id="path3381"
             style="fill:#3f6e97;fill-opacity:1;fill-rule:nonzero;stroke:none" />
        </g>
        <g
           transform="translate(145.831,117.5315)"
           id="g3383">
          <path
             d="m 0,0 8.861,0 -2.118,-10.9 7.896,0 c 4.966,0 8.395,-0.866 10.279,-2.595 1.885,-1.741 2.451,-4.546 1.696,-8.429 l -3.708,-19.08 -9.003,0 3.526,18.141 c 0.401,2.065 0.253,3.473 -0.441,4.221 -0.698,0.755 -2.181,1.128 -4.449,1.128 l -7.082,0 -4.564,-23.49 -8.862,0 L 0,0 z"
             id="path3385"
             style="fill:#3f6e97;fill-opacity:1;fill-rule:nonzero;stroke:none" />
        </g>
        <g
           transform="translate(170.3985,65.6253)"
           id="g3387">
          <path
             d="m 0,0 8.934,0 2.118,10.902 7.652,0 c 3.374,0 6.153,0.353 8.334,1.063 2.179,0.706 4.161,1.901 5.946,3.569 1.498,1.375 2.707,2.893 3.634,4.554 0.927,1.658 1.586,3.488 1.976,5.49 0.943,4.861 0.231,8.648 -2.138,11.358 -2.37,2.717 -6.139,4.07 -11.308,4.07 l -17.177,0 L 0,0 z m 21.764,34.533 c 3.396,0 5.658,-0.623 6.788,-1.881 1.13,-1.25 1.398,-3.402 0.809,-6.447 -0.619,-3.177 -1.809,-5.439 -3.57,-6.797 -1.765,-1.357 -4.447,-2.034 -8.046,-2.034 l -5.435,0 3.335,17.159 6.119,0 z"
             id="path3389"
             style="fill:#3f6e97;fill-opacity:1;fill-rule:nonzero;stroke:none" />
        </g>
        <g
           transform="translate(431.2217,149.044)"
           id="g3391">
          <path
             d="m 0,0 c 3.059,0 5.652,-3.413 5.652,-7.452 0,-4.04 -2.593,-7.456 -5.652,-7.456 -5.374,0 -9.742,-5.104 -9.742,-11.376 0,-6.27 4.368,-11.375 9.742,-11.375 1.127,0 2.039,0.88 2.039,1.963 0,1.082 -0.912,1.961 -2.039,1.961 -3.118,0 -5.658,3.343 -5.658,7.451 0,4.111 2.54,7.457 5.658,7.457 5.368,0 9.737,5.103 9.737,11.375 C 9.737,-1.183 5.368,3.924 0,3.924 -1.133,3.924 -2.045,3.045 -2.045,1.963 -2.045,0.878 -1.133,0 0,0"
             id="path3393"
             style="fill:#ffffff;fill-opacity:1;fill-rule:nonzero;stroke:none" />
        </g>
        <g
           transform="translate(415.8313,111.526)"
           id="g3395">
          <path
             d="M 0,0 C 1.197,0 2.174,0.931 2.174,2.084 2.174,3.237 1.197,4.17 0,4.17 c -1.79,0 -3.057,1.394 -3.655,2.227 -1.189,1.641 -1.87,3.961 -1.87,6.355 0,4.649 2.527,8.58 5.525,8.58 5.532,0 9.864,5.601 9.864,12.757 0,7.152 -4.334,12.753 -9.864,12.753 -1.204,0 -2.177,-0.934 -2.177,-2.084 0,-1.154 0.973,-2.089 2.177,-2.089 2.989,0 5.517,-3.928 5.517,-8.577 0,-4.654 -2.527,-8.58 -5.517,-8.58 -5.539,0 -9.875,-5.603 -9.875,-12.757 0,-3.272 0.94,-6.375 2.642,-8.734 C -5.392,1.463 -2.753,0 0,0"
             id="path3397"
             style="fill:#ffffff;fill-opacity:1;fill-rule:nonzero;stroke:none" />
        </g>
        <g
           transform="translate(469.1358,58.9169)"
           id="g3399">
          <path
             d="m 0,0 0,-2.456 -6.593,0 c -4.175,0 -6.744,-3.082 -8.08,-5.37 l -64.643,0 c -0.555,0.948 -1.329,2.015 -2.332,2.959 l 26.103,0 0,1.844 -28.925,0 c -0.874,0.349 -1.845,0.567 -2.927,0.567 l -8.518,0 0,2.456 L 0,0 z m 8.253,27.294 c 0,-7.346 -3.622,-11.641 -11.21,-11.641 -3.636,0 -6.176,1.389 -8.319,3.617 4.466,5.292 7.683,11.592 9.219,18.492 6.953,-0.258 10.31,-3.436 10.31,-10.468 M -15.215,15.169 c 3.11,-2.859 7.292,-4.632 11.917,-4.632 9.563,0 17.323,7.501 17.323,16.757 0,8.555 -6.631,15.596 -15.186,16.612 0.071,1.04 0.13,2.084 0.13,3.139 l 0,2.202 -92.054,0 0,-2.202 c 0,-19.728 13.48,-36.436 32.083,-42.104 l 0,-1.466 -38.531,0 0,-9.407 12.136,0 c 3.847,0 5.773,-5.364 5.773,-5.364 l 69.258,0 c 0,0 1.918,5.364 5.766,5.364 l 10.219,0 0,9.407 -37.688,0 0,1.19 c 7.165,2.024 13.605,5.67 18.854,10.504"
             id="path3401"
             style="fill:#ffffff;fill-opacity:1;fill-rule:nonzero;stroke:none" />
        </g>
        <g
           transform="translate(745.5693,301.0656)"
           id="g3403">
          <path
             d="M 0,0 -10.435,-36.283 -46.286,-29.216 -23.971,0 0,0 z"
             id="path3405"
             style="fill:#ffffff;fill-opacity:1;fill-rule:nonzero;stroke:none" />
        </g>
        <g
           transform="translate(788.6856,301.0656)"
           id="g3407">
          <path
             d="m 0,0 10.801,-36.393 -62.974,0 L -41.701,0 0,0 z"
             id="path3409"
             style="fill:#ffffff;fill-opacity:1;fill-rule:nonzero;stroke:none" />
        </g>
        <g
           transform="translate(811.598,301.0656)"
           id="g3411">
          <path
             d="M 0,0 25.057,-29.233 -10.725,-36.286 -21.497,0.005 0,0 z"
             id="path3413"
             style="fill:#ffffff;fill-opacity:1;fill-rule:nonzero;stroke:none" />
        </g>
        <g
           transform="translate(770.6171,205.6334)"
           id="g3415">
          <path
             d="M 0,0 30.231,57.758 65.611,64.735 0,0 z"
             id="path3417"
             style="fill:#ffffff;fill-opacity:1;fill-rule:nonzero;stroke:none" />
        </g>
        <g
           transform="translate(799.2791,263.3159)"
           id="g3419">
          <path
             d="M 0,0 -31.273,-59.757 -62.546,0.005 0,0 z"
             id="path3421"
             style="fill:#ffffff;fill-opacity:1;fill-rule:nonzero;stroke:none" />
        </g>
        <g
           transform="translate(735.1684,263.3917)"
           id="g3423">
          <path
             d="M 0,0 30.219,-57.763 -35.37,6.977 0,0 z"
             id="path3425"
             style="fill:#ffffff;fill-opacity:1;fill-rule:nonzero;stroke:none" />
        </g>
        <g
           transform="translate(417.119,299.7428)"
           id="g3427">
          <path
             d="m 0,0 5.842,0 0,-7.011 5.842,0 0,21.032 -5.842,0 0,-8.179 -5.842,0 0,8.179 -4.674,0 0,-21.032 4.674,0 L 0,0 z"
             id="path3429"
             style="fill:#ffffff;fill-opacity:1;fill-rule:nonzero;stroke:none" />
        </g>
        <g
           transform="translate(436.9823,292.7321)"
           id="g3431">
          <path
             d="m 0,0 5.842,0 0,12.853 5.843,0 0,8.178 -17.527,0 0,-8.178 5.842,0 L 0,0 z"
             id="path3433"
             style="fill:#ffffff;fill-opacity:1;fill-rule:nonzero;stroke:none" />
        </g>
        <g
           transform="translate(459.1825,303.8649)"
           id="g3435">
          <path
             d="m 0,0 4.204,-5.291 0.111,0 3.864,5.291 0,-11.133 7.011,0 0,21.031 -6.775,0 -4.1,-6.728 -4.105,6.728 -8.389,0 0,-21.031 8.179,0 L 0,0 z"
             id="path3437"
             style="fill:#ffffff;fill-opacity:1;fill-rule:nonzero;stroke:none" />
        </g>
        <g
           transform="translate(493.0683,299.7428)"
           id="g3439">
          <path
             d="m 0,0 -9.348,0 0,14.021 -7.01,0 0,-21.032 L 0,-7.011 0,0 z"
             id="path3441"
             style="fill:#ffffff;fill-opacity:1;fill-rule:nonzero;stroke:none" />
        </g>
        <g
           transform="translate(479.4618,266.2985)"
           id="g3443">
          <path
             d="m 0,0 -0.49,-4.996 -0.217,-2.055 -0.035,0 -25.964,0 -0.036,0 -15.212,0 0.985,-12 14.227,0 0.036,0 22.115,0 2.902,0 -0.262,-2.329 -2.531,-28.132 -0.435,-1.662 -22.333,-5.964 0,0.004 0.222,-0.052 -21.941,5.19 -1.377,15.945 4.988,0 5.834,0 0.776,-7.617 11.741,-2.709 -0.243,0.486 0,-0.015 12.274,2.558 1.507,13.297 -13.237,0 -0.036,0 -24.084,0 -2.651,29.407 -0.255,2.593 26.99,0 0.036,0 26.962,0 L 0,0 z m -69.755,19.949 7.837,-86.927 35.159,-9.286 35.259,9.057 7.845,87.156 -86.1,0 z"
             id="path3445"
             style="fill:#ffffff;fill-opacity:1;fill-rule:nonzero;stroke:none" />
        </g>
      </g>
    </g>
  </g>
</svg>
