<?xml version="1.0" encoding="utf-8"?>
<!-- Generated by IcoMoon.io -->
<!DOCTYPE svg PUBLIC "-//W3C//DTD SVG 1.1//EN" "http://www.w3.org/Graphics/SVG/1.1/DTD/svg11.dtd">
<svg version="1.1" xmlns="http://www.w3.org/2000/svg" xmlns:xlink="http://www.w3.org/1999/xlink" width="43" height="40" viewBox="0 0 43 40">
<g>
</g>
	<path d="M18.571 24.286v-2.857q0-0.313-0.201-0.513t-0.513-0.201h-4.286v-4.286q0-0.313-0.201-0.513t-0.513-0.201h-2.857q-0.313 0-0.513 0.201t-0.201 0.513v4.286h-4.286q-0.313 0-0.513 0.201t-0.201 0.513v2.857q0 0.313 0.201 0.513t0.513 0.201h4.286v4.286q0 0.313 0.201 0.513t0.513 0.201h2.857q0.313 0 0.513-0.201t0.201-0.513v-4.286h4.286q0.313 0 0.513-0.201t0.201-0.513zM31.429 25.714q0-1.183-0.837-2.020t-2.020-0.837-2.020 0.837-0.837 2.020 0.837 2.020 2.020 0.837 2.020-0.837 0.837-2.020zM37.143 20q0-1.183-0.837-2.020t-2.020-0.837-2.020 0.837-0.837 2.020 0.837 2.020 2.020 0.837 2.020-0.837 0.837-2.020zM42.857 22.857q0 4.732-3.348 8.080t-8.080 3.348q-4.286 0-7.545-2.857h-4.911q-3.259 2.857-7.545 2.857-4.732 0-8.080-3.348t-3.348-8.080 3.348-8.080 8.080-3.348h20q4.732 0 8.080 3.348t3.348 8.080z" fill="#000000" />
</svg>
