<?xml version="1.0" encoding="utf-8"?>
<!-- Generated by IcoMoon.io -->
<!DOCTYPE svg PUBLIC "-//W3C//DTD SVG 1.1//EN" "http://www.w3.org/Graphics/SVG/1.1/DTD/svg11.dtd">
<svg version="1.1" xmlns="http://www.w3.org/2000/svg" xmlns:xlink="http://www.w3.org/1999/xlink" width="34" height="40" viewBox="0 0 34 40">
<g>
</g>
	<path d="M8.795 30.179q-0.179 0.201-0.446-0.067-0.29-0.246-0.089-0.424 0.179-0.201 0.446 0.067 0.268 0.246 0.089 0.424zM7.857 28.817q0.201 0.268 0 0.424-0.179 0.134-0.379-0.156t0-0.402q0.201-0.156 0.379 0.134zM6.496 27.478q-0.112 0.156-0.29 0.045-0.223-0.112-0.156-0.268 0.067-0.112 0.29-0.045 0.223 0.112 0.156 0.268zM7.188 28.237q-0.134 0.156-0.357-0.067-0.201-0.246-0.045-0.357 0.134-0.134 0.357 0.067 0.201 0.246 0.045 0.357zM10.067 30.737q-0.089 0.268-0.424 0.134-0.379-0.089-0.29-0.335t0.424-0.156q0.357 0.112 0.29 0.357zM11.473 30.848q0 0.246-0.357 0.246-0.379 0.045-0.379-0.246 0-0.246 0.357-0.246 0.379-0.045 0.379 0.246zM12.768 30.625q0.045 0.223-0.313 0.313t-0.402-0.179 0.313-0.335q0.357-0.045 0.402 0.201zM34.286 9.286v21.429q0 2.656-1.886 4.542t-4.542 1.886h-5q-0.357 0-0.547-0.022t-0.435-0.112-0.357-0.324-0.112-0.614v-5.335q0-2.165-1.161-3.17 1.272-0.134 2.288-0.402t2.098-0.871 1.808-1.484 1.183-2.344 0.458-3.359q0-2.701-1.763-4.598 0.826-2.031-0.179-4.554-0.625-0.201-1.808 0.246t-2.054 0.982l-0.848 0.536q-2.076-0.58-4.286-0.58t-4.286 0.58q-0.357-0.246-0.949-0.603t-1.864-0.859-1.92-0.301q-0.982 2.522-0.156 4.554-1.763 1.897-1.763 4.598 0 1.897 0.458 3.348t1.172 2.344 1.797 1.496 2.098 0.871 2.288 0.402q-0.893 0.804-1.094 2.299-0.469 0.223-1.004 0.335t-1.272 0.112-1.462-0.48-1.239-1.395q-0.424-0.714-1.083-1.161t-1.105-0.536l-0.446-0.067q-0.469 0-0.647 0.1t-0.112 0.257 0.201 0.313 0.29 0.268l0.156 0.112q0.491 0.223 0.971 0.848t0.703 1.138l0.223 0.513q0.29 0.848 0.982 1.373t1.496 0.67 1.551 0.156 1.239-0.078l0.513-0.089q0 0.848 0.011 2.299t0.011 1.518q0 0.491-0.246 0.748t-0.491 0.29-0.737 0.033h-5q-2.656 0-4.542-1.886t-1.886-4.542v-21.429q0-2.656 1.886-4.542t4.542-1.886h21.429q2.656 0 4.542 1.886t1.886 4.542z" fill="#000000" />
</svg>
