<?xml version="1.0" encoding="utf-8"?>
<!-- Generated by IcoMoon.io -->
<!DOCTYPE svg PUBLIC "-//W3C//DTD SVG 1.1//EN" "http://www.w3.org/Graphics/SVG/1.1/DTD/svg11.dtd">
<svg version="1.1" xmlns="http://www.w3.org/2000/svg" xmlns:xlink="http://www.w3.org/1999/xlink" width="23" height="40" viewBox="0 0 23 40">
<g>
</g>
	<path d="M15.714 28.036v5.357q0 0.357-0.268 0.625t-0.625 0.268h-5.357q-0.357 0-0.625-0.268t-0.268-0.625v-5.357q0-0.357 0.268-0.625t0.625-0.268h5.357q0.357 0 0.625 0.268t0.268 0.625zM22.768 14.643q0 1.205-0.346 2.254t-0.781 1.708-1.228 1.328-1.283 0.971-1.362 0.792q-0.915 0.513-1.529 1.451t-0.614 1.496q0 0.379-0.268 0.725t-0.625 0.346h-5.357q-0.335 0-0.569-0.413t-0.234-0.837v-1.004q0-1.853 1.451-3.493t3.192-2.422q1.317-0.603 1.875-1.25t0.558-1.696q0-0.938-1.038-1.652t-2.4-0.714q-1.451 0-2.411 0.647-0.781 0.558-2.388 2.567-0.29 0.357-0.692 0.357-0.268 0-0.558-0.179l-3.661-2.79q-0.29-0.223-0.346-0.558t0.123-0.625q3.571-5.938 10.357-5.938 1.786 0 3.594 0.692t3.259 1.853 2.366 2.846 0.915 3.538z" fill="#000000" />
</svg>
