<?xml version="1.0" encoding="UTF-8" standalone="no"?>
<!-- Created with Inkscape (http://www.inkscape.org/) -->

<svg
   xmlns:dc="http://purl.org/dc/elements/1.1/"
   xmlns:cc="http://creativecommons.org/ns#"
   xmlns:rdf="http://www.w3.org/1999/02/22-rdf-syntax-ns#"
   xmlns:svg="http://www.w3.org/2000/svg"
   xmlns="http://www.w3.org/2000/svg"
   version="1.1"
   width="500.19614"
   height="399.76825"
   id="svg3435">
  <defs
     id="defs3437">
    <clipPath
       id="clipPath3138">
      <path
         d="M 0,600 960,600 960,0 0,0 0,600 z"
         id="path3140" />
    </clipPath>
  </defs>
  <metadata
     id="metadata3440">
    <rdf:RDF>
      <cc:Work
         rdf:about="">
        <dc:format>image/svg+xml</dc:format>
        <dc:type
           rdf:resource="http://purl.org/dc/dcmitype/StillImage" />
        <dc:title></dc:title>
      </cc:Work>
    </rdf:RDF>
  </metadata>
  <g
     transform="translate(-95.616225,-786.7637)"
     id="layer1">
    <g
       transform="matrix(1.25,0,0,-1.25,-208.52365,1187.9387)"
       id="g3134">
      <g
         clip-path="url(#clipPath3138)"
         id="g3136">
        <g
           transform="translate(362.3019,81.2386)"
           id="g3142">
          <path
             d="m 0,0 c 0,0 -1.065,-11.643 -9.612,-13.139 -7.319,-1.28 -12.178,5.769 -12.178,5.769 l -2.404,-11.375 -5.124,0 c 0,0 -4.646,17.142 -7.851,20.028 -3.206,2.885 -8.173,3.684 -8.173,3.684 0,0 -6.729,0.482 -11.057,4.806 -4.326,4.328 -0.32,9.615 -0.32,9.615 0,0 -5.447,-0.321 -16.504,2.082 -11.054,2.404 -7.69,9.455 -7.69,9.455 0,0 -2.885,-0.482 -5.288,2.563 -1.708,2.164 -2.953,7.456 0.161,13.619 2.789,5.52 7.686,7.436 7.686,7.436 0,0 -1.813,2.301 2.011,5.516 1.997,1.679 5.523,1.629 5.523,1.629 0,0 0.862,3.7 6.17,6.099 6.013,2.716 10.014,0.47 10.014,0.47 0,0 1.607,3.519 6.253,5.122 4.647,1.602 9.288,-1.116 9.288,-1.116 0,0 3.144,2.843 8.913,2.843 5.768,0 7.914,-3.005 7.914,-3.005 0,0 3.475,1.786 7.691,0.322 3.983,-1.385 5.136,-5.246 5.136,-5.246 0,0 2.877,2.041 6.88,0.438 4.006,-1.603 5.611,-5.929 5.611,-5.929 0,0 2.76,0.404 5.507,-2.034 2.039,-1.813 1.38,-5.176 1.38,-5.176 0,0 3.399,-1.128 5.432,-5.197 1.893,-3.785 -0.785,-6.981 -0.785,-6.981 0,0 5.608,-4.166 6.409,-15.061 0.977,-13.293 -7.528,-15.862 -7.528,-15.862 0,0 1.682,-4.218 -1.284,-8.812 C 8.146,-3.69 0,0 0,0 m 33.612,18.446 c 3.073,23.274 -6.368,51.161 -34.254,63.676 -22.049,9.896 -60.967,9.879 -81.494,-8.834 -17.902,-16.323 -21.938,-39.491 -21.938,-39.491 0,0 -1.847,-8.607 -1.847,-11.464 0,-2.731 3.075,-3.806 2.723,-5.21 -0.351,-1.404 -3.796,-5.42 -6.43,-9.809 -2.631,-4.388 -9.362,-14.143 -9.362,-16.774 0,-2.632 1.576,-3.607 4.735,-4.66 3.158,-1.053 5.616,-1.93 6.143,-3.158 0.526,-1.228 -1.505,-4.737 -1.614,-7.24 -0.093,-2.134 0.688,-2.372 2.288,-2.993 1.983,-0.772 5.028,-0.872 5.028,-0.872 0,0 -6.783,-1.281 -6.108,-4.057 0.698,-2.881 4.783,-3.466 5.146,-5.723 0.181,-1.139 -3.454,-6.971 -2.976,-12.649 0.625,-7.41 7.644,-10.726 18.773,-8.941 10.608,1.703 15.596,3.285 16.96,-2.565 0.858,-3.682 0.767,-9.895 2.346,-16.918 0.065,-0.28 0.132,-0.581 0.196,-0.877 l 81.405,0 c -3.481,6.345 -8.058,16.529 -8.058,29.488 0,8.891 0.884,22.089 7.26,29.109 7.993,8.8 18.609,21.261 21.078,39.962"
             id="path3144"
             style="fill:#ffffff;fill-opacity:1;fill-rule:nonzero;stroke:none" />
        </g>
        <g
           transform="translate(512.2978,83.8014)"
           id="g3146">
          <path
             d="m 0,0 c -2.965,4.594 -1.283,8.812 -1.283,8.812 0,0 -8.506,2.57 -7.529,15.862 0.802,10.895 6.409,15.061 6.409,15.061 0,0 -2.678,3.196 -0.784,6.982 2.033,4.068 5.432,5.196 5.432,5.196 0,0 -0.659,3.363 1.379,5.176 2.747,2.439 5.508,2.034 5.508,2.034 0,0 1.605,4.326 5.611,5.929 4.002,1.604 6.88,-0.438 6.88,-0.438 0,0 1.152,3.861 5.136,5.246 4.216,1.464 7.69,-0.322 7.69,-0.322 0,0 2.147,3.005 7.914,3.005 5.769,0 8.914,-2.843 8.914,-2.843 0,0 4.64,2.718 9.288,1.116 4.646,-1.603 6.252,-5.122 6.252,-5.122 0,0 4.001,2.246 10.014,-0.47 5.309,-2.399 6.17,-6.099 6.17,-6.099 0,0 3.526,0.05 5.523,-1.629 3.824,-3.215 2.011,-5.516 2.011,-5.516 0,0 4.897,-1.916 7.687,-7.436 3.113,-6.163 1.868,-11.455 0.16,-13.619 -2.403,-3.045 -5.288,-2.563 -5.288,-2.563 0,0 3.365,-7.051 -7.69,-9.455 C 74.348,16.504 68.9,16.826 68.9,16.826 c 0,0 4.006,-5.288 -0.32,-9.616 C 64.253,2.886 57.524,2.405 57.524,2.405 c 0,0 -4.968,-0.8 -8.174,-3.685 -3.204,-2.886 -7.85,-20.028 -7.85,-20.028 l -5.124,0 -2.405,11.375 c 0,0 -4.859,-7.049 -12.178,-5.769 -8.547,1.496 -9.612,13.139 -9.612,13.139 0,0 -8.146,-3.689 -12.181,2.563 m -0.353,-24.079 c 6.377,-7.02 7.261,-20.218 7.261,-29.109 0,-12.958 -4.577,-23.143 -8.059,-29.488 l 81.405,0 c 0.064,0.296 0.131,0.597 0.196,0.877 1.579,7.023 1.488,13.236 2.347,16.919 1.364,5.849 6.352,4.267 16.959,2.564 11.129,-1.785 18.149,1.531 18.773,8.941 0.478,5.678 -3.156,11.511 -2.976,12.649 0.363,2.257 4.448,2.842 5.147,5.723 0.674,2.776 -6.108,4.057 -6.108,4.057 0,0 3.044,0.1 5.028,0.873 1.599,0.621 2.38,0.858 2.287,2.992 -0.108,2.503 -2.14,6.012 -1.613,7.24 0.526,1.228 2.984,2.106 6.142,3.158 3.16,1.053 4.735,2.028 4.735,4.66 0,2.632 -6.73,12.386 -9.362,16.774 -2.633,4.389 -6.078,8.406 -6.429,9.809 -0.353,1.404 2.722,2.479 2.722,5.21 0,2.857 -1.847,11.464 -1.847,11.464 0,0 -4.035,23.168 -21.937,39.491 C 73.79,89.438 34.872,89.455 12.823,79.559 -15.063,67.044 -24.504,39.157 -21.43,15.883 c 2.468,-18.7 13.084,-31.162 21.077,-39.962"
             id="path3148"
             style="fill:#ffffff;fill-opacity:1;fill-rule:nonzero;stroke:none" />
        </g>
        <g
           transform="translate(566.8955,180.784)"
           id="g3150">
          <path
             d="m 0,0 c 3.629,0 7.77,2.074 7.77,5.188 l -15.55,0 C -7.78,2.074 -3.633,0 0,0"
             id="path3152"
             style="fill:#ffffff;fill-opacity:1;fill-rule:nonzero;stroke:none" />
        </g>
        <g
           transform="translate(577.2615,192.3684)"
           id="g3154">
          <path
             d="m 0,0 -20.742,0 c -0.858,0 -1.555,-0.697 -1.555,-1.559 l 0,-1.033 c 0,-0.856 0.697,-1.552 1.555,-1.552 l 20.742,0 c 0.862,0 1.555,0.7 1.555,1.552 l 0,1.033 C 1.555,-0.697 0.862,0 0,0"
             id="path3156"
             style="fill:#ffffff;fill-opacity:1;fill-rule:nonzero;stroke:none" />
        </g>
        <g
           transform="translate(577.2615,198.59)"
           id="g3158">
          <path
             d="m 0,0 -20.742,0 c -0.858,0 -1.555,-0.693 -1.555,-1.552 l 0,-1.034 c 0,-0.865 0.697,-1.559 1.555,-1.559 l 20.742,0 c 0.862,0 1.555,0.697 1.555,1.559 l 0,1.034 C 1.555,-0.693 0.862,0 0,0"
             id="path3160"
             style="fill:#ffffff;fill-opacity:1;fill-rule:nonzero;stroke:none" />
        </g>
        <g
           transform="translate(566.8955,278.4367)"
           id="g3162">
          <path
             d="m 0,0 c -16.034,0 -29.028,-12.997 -29.028,-29.028 0,-5.272 1.481,-10.181 3.866,-14.484 7.132,-12.842 9.018,-20.052 10.182,-27.025 0.975,-5.855 2.326,-7.21 6.746,-7.21 l 8.234,0 8.221,0 c 4.42,0 5.771,1.358 6.75,7.21 1.16,6.973 3.049,14.183 10.175,27.025 2.388,4.306 3.872,9.212 3.872,14.484 C 29.021,-12.997 16.027,0 0,0"
             id="path3164"
             style="fill:#ffffff;fill-opacity:1;fill-rule:nonzero;stroke:none" />
        </g>
        <g
           transform="translate(318.8216,181.7092)"
           id="g3166">
          <path
             d="m 0,0 c -3.621,0 -6.784,1.172 -9.488,3.519 -2.704,2.347 -4.053,5.626 -4.053,9.844 0,3.742 1.305,6.891 3.92,9.443 2.614,2.553 5.821,3.831 9.621,3.831 3.742,0 6.891,-1.278 9.443,-3.831 2.553,-2.552 3.831,-5.701 3.831,-9.443 0,-4.156 -1.336,-7.425 -4.009,-9.8 C 6.592,1.189 3.505,0 0,0 m -43.474,97.639 c 0,5.644 1.813,11.359 5.434,17.149 3.621,5.791 8.908,10.588 15.857,14.388 6.949,3.799 15.056,5.702 24.321,5.702 8.61,0 16.214,-1.591 22.806,-4.767 6.593,-3.176 11.684,-7.496 15.279,-12.962 3.594,-5.465 5.389,-11.403 5.389,-17.817 0,-5.047 -1.024,-9.475 -3.073,-13.274 -2.049,-3.8 -4.486,-7.083 -7.305,-9.844 -2.82,-2.762 -7.884,-7.408 -15.19,-13.942 -2.017,-1.84 -3.639,-3.461 -4.855,-4.856 -1.216,-1.394 -2.124,-2.672 -2.717,-3.83 C 11.88,52.428 11.416,51.27 11.091,50.111 10.766,48.953 10.276,46.918 9.621,44.009 8.494,37.831 4.958,34.744 -0.98,34.744 c -3.087,0 -5.688,1.011 -7.795,3.029 -2.107,2.018 -3.163,5.02 -3.163,8.998 0,4.988 0.771,9.309 2.317,12.962 1.545,3.652 3.594,6.859 6.147,9.621 2.552,2.762 6,6.045 10.334,9.844 3.799,3.328 6.548,5.835 8.24,7.528 1.693,1.693 3.118,3.577 4.276,5.657 1.159,2.08 1.737,4.334 1.737,6.771 0,4.752 -1.768,8.761 -5.3,12.026 -3.532,3.265 -8.094,4.9 -13.675,4.9 -6.534,0 -11.345,-1.648 -14.432,-4.944 -3.087,-3.296 -5.702,-8.152 -7.84,-14.566 -2.017,-6.713 -5.848,-10.067 -11.492,-10.067 -3.327,0 -6.133,1.172 -8.419,3.519 -2.285,2.348 -3.429,4.887 -3.429,7.617"
             id="path3168"
             style="fill:#ffffff;fill-opacity:1;fill-rule:nonzero;stroke:none" />
        </g>
        <g
           transform="translate(517.6699,299.67)"
           id="g3170">
          <path
             d="m 0,0 21.95,-21.95 c -0.66,-0.76 -1.28,-1.55 -1.88,-2.36 L -2.12,-2.12 c -0.58,0.59 -0.58,1.54 0,2.12 0.59,0.59 1.54,0.59 2.12,0"
             id="path3172"
             style="fill:#ffffff;fill-opacity:1;fill-rule:nonzero;stroke:none" />
        </g>
        <g
           transform="translate(568.39,319.44)"
           id="g3174">
          <path
             d="m 0,0 0,-29.26 c -0.49,0.02 -0.99,0.03 -1.49,0.03 -0.51,0 -1.01,-0.01 -1.51,-0.04 L -3,0 c 0,0.83 0.67,1.5 1.5,1.5 C -0.67,1.5 0,0.83 0,0"
             id="path3176"
             style="fill:#ffffff;fill-opacity:1;fill-rule:nonzero;stroke:none" />
        </g>
        <g
           transform="translate(618.23,297.55)"
           id="g3178">
          <path
             d="m 0,0 -22.19,-22.19 c -0.59,0.81 -1.22,1.6 -1.87,2.37 L -2.12,2.12 C -1.54,2.71 -0.59,2.71 0,2.12 0.59,1.54 0.59,0.59 0,0"
             id="path3180"
             style="fill:#ffffff;fill-opacity:1;fill-rule:nonzero;stroke:none" />
        </g>
        <g
           transform="translate(639.5,248.33)"
           id="g3182">
          <path
             d="m 0,0 c 0,-0.83 -0.68,-1.5 -1.5,-1.5 l -35.87,0 c 0.21,0.99 0.38,1.99 0.51,3 l 35.36,0 C -0.68,1.5 0,0.83 0,0"
             id="path3184"
             style="fill:#ffffff;fill-opacity:1;fill-rule:nonzero;stroke:none" />
        </g>
        <g
           transform="translate(531.14,249.83)"
           id="g3186">
          <path
             d="m 0,0 c 0.13,-1.01 0.3,-2.01 0.51,-3 l -35.86,0 c -0.83,0 -1.5,0.67 -1.5,1.5 0,0.83 0.67,1.5 1.5,1.5 L 0,0 z"
             id="path3188"
             style="fill:#ffffff;fill-opacity:1;fill-rule:nonzero;stroke:none" />
        </g>
        <g
           transform="translate(541.4,224.97)"
           id="g3190">
          <path
             d="m 0,0 c 0.47,-1.02 0.9,-2 1.3,-2.95 l -25.03,-25.03 c -0.29,-0.29 -0.67,-0.44 -1.06,-0.44 -0.38,0 -0.77,0.15 -1.06,0.44 -0.58,0.59 -0.58,1.54 0,2.13 L 0,0 z"
             id="path3192"
             style="fill:#ffffff;fill-opacity:1;fill-rule:nonzero;stroke:none" />
        </g>
        <g
           transform="translate(618.23,196.99)"
           id="g3194">
          <path
             d="m 0,0 c -0.29,-0.29 -0.68,-0.44 -1.06,-0.44 -0.38,0 -0.77,0.15 -1.06,0.44 l -25.03,25.03 c 0.4,0.95 0.83,1.93 1.3,2.95 L 0,2.13 C 0.59,1.54 0.59,0.59 0,0"
             id="path3196"
             style="fill:#ffffff;fill-opacity:1;fill-rule:nonzero;stroke:none" />
        </g>
      </g>
    </g>
  </g>
</svg>
