<?xml version="1.0" encoding="utf-8"?>
<!-- Generator: Adobe Illustrator 16.0.0, SVG Export Plug-In . SVG Version: 6.00 Build 0)  -->
<!DOCTYPE svg PUBLIC "-//W3C//DTD SVG 1.1//EN" "http://www.w3.org/Graphics/SVG/1.1/DTD/svg11.dtd">
<svg version="1.1" id="Layer_1" xmlns="http://www.w3.org/2000/svg" xmlns:xlink="http://www.w3.org/1999/xlink" x="0px" y="0px"
	 width="411.09px" height="170.08px" viewBox="0 0 411.09 170.08" enable-background="new 0 0 411.09 170.08" xml:space="preserve">
<g>
	<g>
		<path fill="#FFFFFF" d="M211.328,52.528c2.583-2.675,6.315-4.014,11.194-4.01c3.061,0.002,5.524,0.435,7.391,1.297
			c1.865,0.863,3.346,1.966,4.446,3.306c1.096,1.34,1.861,2.848,2.29,4.521c0.431,1.675,0.692,3.372,0.788,5.094
			c0.092,2.201,1.047,3.732,2.866,4.595c1.814,0.863,3.967,1.295,6.457,1.297c3.06,0.003,5.381-0.569,6.961-1.718
			c1.577-1.146,2.37-3.536,2.373-7.172c0.003-4.307-0.856-8.156-2.575-11.554c-1.719-3.396-4.11-6.294-7.17-8.688
			c-3.059-2.393-6.67-4.214-10.829-5.461c-4.161-1.247-8.729-1.873-13.702-1.877c-4.593-0.003-8.875,0.592-12.847,1.784
			c-3.969,1.193-7.463,3.08-10.478,5.661c-3.017,2.581-5.385,5.95-7.112,10.112c-1.725,4.158-2.589,9.253-2.594,15.28l-0.029,40.037
			c-0.005,6.025,0.852,11.119,2.57,15.282c1.721,4.164,4.084,7.538,7.097,10.123c3.011,2.583,6.547,4.479,10.615,5.675
			c4.063,1.199,8.486,1.801,13.27,1.804c4.688,0.004,9.091-0.59,13.205-1.783c4.113-1.19,7.703-3.08,10.766-5.659
			c3.063-2.581,5.46-5.951,7.185-10.112c1.724-4.16,2.59-9.253,2.595-15.278l0.013-17.076c0.001-1.627-0.501-3.038-1.504-4.236
			c-1.004-1.196-2.465-1.796-4.376-1.797l-24.396-0.019c-1.913-0.001-3.352,0.765-4.306,2.293c-0.959,1.529-1.438,3.206-1.438,5.022
			c-0.002,1.915,0.475,3.611,1.431,5.094c0.952,1.485,2.39,2.227,4.303,2.228l11.625,0.009l-0.006,8.468
			c-0.005,5.646-1.35,9.807-4.028,12.48c-2.683,2.678-6.367,4.013-11.055,4.01c-4.783-0.004-8.465-1.345-11.044-4.026
			c-2.582-2.678-3.869-6.841-3.864-12.486l0.029-40.037C207.449,59.367,208.742,55.205,211.328,52.528z"/>
		<path fill="#FFFFFF" d="M331.44,33.557c-1.961-0.91-4.088-1.367-6.384-1.369c-2.394-0.002-4.545,0.453-6.458,1.359
			c-1.917,0.91-2.873,2.365-2.875,4.375l-0.05,67.159c-0.005,5.646-1.396,9.806-4.17,12.48c-2.777,2.678-6.654,4.013-11.627,4.009
			c-4.976-0.004-8.85-1.345-11.62-4.026c-2.774-2.679-4.157-6.841-4.152-12.486l0.05-67.161c0.002-2.008-0.979-3.465-2.939-4.379
			c-1.959-0.908-4.088-1.367-6.385-1.369c-2.391,0-4.545,0.453-6.456,1.361c-1.916,0.908-2.873,2.363-2.875,4.373l-0.05,67.16
			c-0.005,6.025,0.874,11.12,2.643,15.282c1.768,4.165,4.203,7.539,7.311,10.124c3.106,2.583,6.743,4.478,10.902,5.675
			c4.16,1.199,8.679,1.801,13.56,1.805c4.782,0.004,9.279-0.591,13.489-1.784c4.21-1.19,7.872-3.08,10.982-5.658
			c3.11-2.581,5.553-5.951,7.326-10.113c1.772-4.159,2.662-9.254,2.666-15.278l0.051-67.159
			C334.381,35.926,333.401,34.469,331.44,33.557z"/>
		<path fill="#FFFFFF" d="M408.149,33.459c-1.96-0.908-4.088-1.365-6.383-1.367c-2.394-0.002-4.547,0.453-6.458,1.357
			c-1.917,0.91-2.872,2.367-2.874,4.375l-0.007,9.18h-0.004l-0.04,58.131c-0.004,5.647-1.324,9.807-3.956,12.482
			c-2.633,2.678-6.389,4.013-11.269,4.009c-2.869-0.002-5.261-0.457-7.174-1.367c-1.915-0.911-3.42-2.108-4.517-3.594
			c-1.1-1.481-1.863-3.133-2.293-4.95c-0.428-1.817-0.691-3.637-0.785-5.453c-0.191-2.297-1.168-3.852-2.938-4.667
			c-1.771-0.813-3.897-1.222-6.384-1.224c-3.158-0.003-5.502,0.594-7.032,1.787c-1.534,1.197-2.3,3.612-2.303,7.246
			c-0.003,4.498,0.854,8.491,2.575,11.983c1.718,3.496,4.084,6.485,7.095,8.975c3.011,2.491,6.62,4.38,10.83,5.676
			c4.208,1.296,8.799,1.944,13.775,1.948c4.495,0.003,8.752-0.593,12.771-1.784c4.02-1.192,7.537-3.08,10.553-5.661
			c3.016-2.58,5.385-5.95,7.11-10.111c1.725-4.16,2.592-9.253,2.596-15.28l0.033-43.21l0.011-14.92l0.007-9.18
			C411.092,35.83,410.11,34.373,408.149,33.459z"/>
	</g>
	<g>
		<circle fill="#FFFFFF" cx="85.039" cy="85.039" r="85.039"/>
		<g>
			<path fill="#3B97D3" d="M69.481,42.285c0,0-1.189,0.969-1.191,3.428s1.189,3.428,1.189,3.428s0.846,0.781,1.367,2.237
				c0.686,1.913,0.465,4.114-0.656,6.539c-4.155,8.983,0.104,14.677,2.936,16.433c0.597,0.371,1.26,0.548,1.915,0.549
				c1.222,0.001,2.415-0.612,3.105-1.727c1.062-1.713,0.534-3.96-1.178-5.021c-0.026-0.018-2.632-1.824-0.158-7.172
				c3.099-6.699,1.421-12.115-0.732-15.262c2.156-3.146,3.838-8.557,0.752-15.258c-2.465-5.352,0.142-7.154,0.169-7.172
				c1.715-1.057,2.245-3.305,1.187-5.019c-0.689-1.115-1.882-1.729-3.104-1.731c-0.655,0-1.319,0.177-1.916,0.545
				c-2.836,1.752-7.104,7.44-2.961,16.43c1.117,2.426,1.336,4.627,0.647,6.539C70.327,41.507,69.481,42.285,69.481,42.285z"/>
			<path fill="#3B97D3" d="M93.074,68.163c-1.714,1.059-2.244,3.306-1.186,5.019c0.688,1.116,1.882,1.73,3.104,1.73
				c0.655,0.002,1.318-0.174,1.916-0.544c2.835-1.752,7.103-7.439,2.961-16.429c-1.118-2.428-1.336-4.629-0.647-6.541
				c0.524-1.455,1.37-2.233,1.37-2.233s1.194-0.968,1.196-3.427s-1.188-3.429-1.188-3.429s-0.846-0.78-1.367-2.237
				c-0.686-1.914-0.464-4.114,0.657-6.539c4.155-8.981-0.103-14.677-2.936-16.433c-0.598-0.37-1.261-0.548-1.916-0.548
				c-1.221,0-2.414,0.612-3.105,1.727c-1.062,1.711-0.534,3.96,1.178,5.021c0.027,0.017,2.632,1.824,0.158,7.172
				c-3.097,6.696-1.422,12.11,0.729,15.259c-2.157,3.143-3.844,8.557-0.755,15.261C95.71,66.343,93.101,68.146,93.074,68.163z"/>
		</g>
		<path fill="#35495E" d="M53.274,85.055l-17.963-0.013l-2.933-0.003c-9.394-0.007-17.015,7.604-17.022,16.998
			c-0.007,9.394,7.604,17.015,16.997,17.021l8.961,0.007c8.402,14.642,24.782,24.642,43.68,24.843
			c27.29-0.25,49.369-20.939,49.745-46.57h0.017l0.01-12.223L85.038,85.08L53.274,85.055z M32.243,106.979
			c-2.813-0.002-5.093-2.284-5.091-5.099c0.002-2.813,2.285-5.093,5.099-5.091l3.052,0.003v0.472h0.017
			c0.043,3.334,0.458,6.585,1.2,9.719L32.243,106.979z"/>
	</g>
</g>
</svg>
